<?xml version="1.0" standalone="no"?>
<!DOCTYPE svg PUBLIC "-//W3C//DTD SVG 20010904//EN"
 "http://www.w3.org/TR/2001/REC-SVG-20010904/DTD/svg10.dtd">
<svg version="1.0" xmlns="http://www.w3.org/2000/svg"
 width="1916.000000pt" height="870.000000pt" viewBox="0 0 1916.000000 870.000000"
 preserveAspectRatio="xMidYMid meet">

<g transform="translate(0.000000,870.000000) scale(0.100000,-0.100000)"
fill="#000000" stroke="none">
<path d="M0 8015 l0 -685 9495 0 9495 0 0 680 0 679 88 4 c48 1 -4225 4 -9495
5 l-9583 2 0 -685z m1705 166 c49 -22 99 -77 115 -126 7 -20 10 -67 8 -105 -5
-88 -42 -153 -108 -186 -40 -21 -60 -23 -172 -24 l-128 0 0 230 0 230 123 0
c96 0 130 -4 162 -19z m1066 -118 c18 -76 34 -132 37 -124 3 8 19 69 36 135
l31 121 57 3 57 3 15 -53 c8 -29 25 -93 37 -143 l22 -89 27 114 c14 63 29 127
33 143 7 26 10 27 72 27 45 0 65 -4 65 -12 0 -7 -29 -110 -63 -228 l-63 -215
-61 -3 -62 -3 -24 83 c-14 46 -31 102 -38 126 -15 52 -17 49 -59 -95 l-33
-113 -61 0 -61 0 -49 168 c-26 92 -57 195 -66 230 l-19 62 69 0 68 0 33 -137z
m1599 61 l0 -75 26 20 c37 29 112 29 149 -1 44 -35 55 -74 55 -208 l0 -120
-65 0 -65 0 0 114 c0 122 -7 141 -52 134 -35 -5 -48 -43 -48 -150 l0 -98 -60
0 -60 0 0 230 0 230 60 0 60 0 0 -76z m-230 6 c0 -38 2 -40 30 -40 29 0 30 -2
30 -45 0 -43 -1 -45 -30 -45 l-30 0 0 -85 c0 -85 2 -90 37 -86 15 2 19 -6 27
-51 7 -36 6 -37 -29 -44 -50 -9 -103 3 -131 31 -22 22 -24 32 -24 130 l0 105
-25 0 c-23 0 -25 4 -25 45 0 41 2 45 25 45 23 0 25 4 25 40 l0 40 60 0 60 0 0
-40z m-2140 -61 l0 -20 26 20 c37 29 112 29 149 -1 44 -35 55 -74 55 -208 l0
-120 -65 0 -65 0 0 114 c0 122 -7 141 -52 134 -35 -5 -48 -43 -48 -150 l0 -98
-60 0 -60 0 0 175 0 175 60 0 c54 0 60 -2 60 -21z m530 3 c40 -20 80 -74 80
-108 0 -22 -4 -24 -54 -24 -50 0 -56 2 -68 28 -18 36 -60 42 -82 10 -18 -25
-21 -84 -7 -121 17 -45 76 -46 87 -1 6 22 11 24 66 24 l61 0 -7 -32 c-24 -125
-206 -162 -297 -62 -77 84 -56 234 39 284 48 25 135 26 182 2z m987 -8 c37
-27 73 -99 73 -146 l0 -38 -115 0 c-120 0 -132 -5 -98 -42 20 -22 66 -24 87
-3 16 16 126 22 126 6 0 -19 -48 -77 -75 -91 -47 -24 -167 -20 -201 6 -46 34
-67 70 -72 123 -9 97 23 166 93 197 44 21 147 13 182 -12z m363 6 c22 -11 44
-29 50 -39 5 -11 10 -81 10 -155 l0 -136 -55 0 c-45 0 -55 3 -55 17 0 14 -2
14 -21 -3 -16 -14 -36 -19 -81 -19 -55 0 -62 3 -89 33 -41 46 -40 93 4 137 28
28 44 35 94 40 76 9 92 18 77 42 -16 26 -40 27 -64 3 -17 -17 -31 -20 -73 -18
-46 3 -52 5 -49 23 14 81 157 123 252 75z m1018 1 c48 -25 82 -84 82 -145 l0
-46 -110 0 c-99 0 -110 -2 -110 -18 0 -10 5 -23 12 -30 17 -17 73 -15 88 3 15
18 120 21 120 4 0 -26 -38 -71 -75 -89 -86 -42 -202 -14 -247 58 -18 29 -23
52 -23 102 0 78 27 130 83 160 49 25 131 26 180 1z m242 -3 l0 -21 23 21 c15
14 36 22 60 22 l37 0 0 -50 0 -50 -37 0 c-64 0 -73 -18 -73 -142 l0 -108 -65
0 -65 0 0 175 0 175 60 0 c55 0 60 -2 60 -22z m10264 7 c9 -23 -22 -47 -45
-35 -19 11 -25 31 -12 43 12 13 51 7 57 -8z m344 -9 c-3 -18 -11 -21 -60 -23
-40 -1 -58 3 -58 11 0 23 22 34 71 33 44 -1 50 -3 47 -21z m-3388 -11 c0 -23
-3 -25 -50 -25 -43 0 -50 -3 -50 -19 0 -17 8 -20 48 -23 40 -3 47 -6 50 -25 3
-21 0 -23 -47 -23 -44 0 -51 -3 -51 -20 0 -17 7 -20 50 -20 47 0 50 -2 50 -25
0 -25 -1 -25 -80 -25 l-80 0 0 115 0 115 80 0 c79 0 80 0 80 -25z m400 -90 l0
-116 -37 0 c-21 0 -53 -1 -71 -1 -41 -1 -61 18 -69 65 -11 72 38 127 95 106
20 -8 22 -5 22 26 0 32 2 35 30 35 l30 0 0 -115z m2045 90 c53 -52 18 -135
-57 -135 -37 0 -38 -1 -38 -35 0 -32 -2 -35 -30 -35 l-30 0 0 115 0 115 65 0
c57 0 69 -3 90 -25z m1425 -90 l0 -115 -34 0 c-18 0 -47 -3 -64 -6 -86 -17
-118 145 -36 176 17 7 32 6 45 0 17 -10 19 -7 19 25 0 33 2 35 35 35 l35 0 0
-115z m360 75 c0 -11 7 -20 15 -20 8 0 15 -9 15 -20 0 -11 -7 -20 -15 -20 -22
0 -21 -76 1 -88 21 -11 14 -46 -9 -50 -10 -2 -29 4 -42 12 -22 14 -25 24 -25
71 0 42 -3 55 -15 55 -8 0 -15 9 -15 20 0 11 7 20 15 20 8 0 15 9 15 20 0 16
7 20 30 20 23 0 30 -4 30 -20z m-4042 -38 c7 -9 12 -45 12 -84 l0 -68 -30 0
c-28 0 -29 1 -32 58 -3 49 -6 57 -23 57 -17 0 -20 -8 -23 -57 -3 -57 -4 -58
-32 -58 l-30 0 0 85 0 85 45 -2 c25 0 48 2 52 5 10 10 46 -3 61 -21z m358 18
c16 0 40 -35 49 -72 l7 -28 -61 0 c-50 0 -59 -3 -55 -15 7 -17 40 -20 49 -5 9
14 55 12 55 -2 -1 -60 -108 -75 -150 -21 -49 63 5 166 78 147 8 -2 20 -4 28
-4z m182 -22 c3 -21 -2 -27 -20 -30 -21 -3 -23 -9 -26 -60 l-3 -58 -34 0 -35
0 0 84 0 85 48 4 c65 5 67 4 70 -25z m154 3 c10 -9 20 -31 24 -49 l7 -32 -64
0 c-60 0 -62 -1 -46 -17 14 -15 21 -15 37 -5 23 14 56 16 64 3 3 -5 -3 -20
-13 -32 -15 -19 -29 -24 -66 -24 -39 0 -51 5 -71 28 -74 86 46 206 128 128z
m191 1 c27 -24 22 -52 -9 -52 -15 0 -32 7 -38 15 -16 21 -38 3 -38 -30 0 -37
19 -55 36 -32 7 9 25 17 40 17 34 0 35 -31 2 -57 -18 -15 -23 -26 -19 -46 4
-22 1 -28 -22 -37 -14 -5 -31 -10 -36 -10 -15 0 -10 22 9 36 10 8 12 13 5 14
-7 0 -13 7 -13 15 0 8 -6 15 -14 15 -23 0 -56 50 -56 85 0 78 93 119 153 67z
m156 17 c40 -14 65 -60 57 -104 -11 -58 -70 -88 -127 -65 -37 16 -49 37 -49
88 0 41 26 75 65 85 11 3 20 5 21 6 1 0 15 -4 33 -10z m214 -11 c9 -5 17 -18
17 -28 0 -15 -7 -20 -27 -21 l-28 -1 27 -9 c80 -30 8 -129 -74 -104 -56 17
-78 65 -30 66 26 0 26 1 5 11 -30 15 -38 44 -19 73 22 34 77 39 129 13z m1168
-9 c4 -13 7 -18 8 -11 1 19 61 41 94 35 33 -6 67 -47 67 -79 0 -22 -4 -24 -55
-24 -31 0 -55 -4 -55 -10 0 -16 30 -24 43 -11 12 12 67 15 67 3 0 -4 -7 -17
-15 -29 -19 -27 -70 -38 -108 -24 -32 12 -59 66 -50 100 5 20 2 22 -23 19 -28
-3 -29 -5 -32 -60 -3 -57 -4 -58 -32 -58 l-30 0 0 85 0 86 40 -3 c22 -1 43 1
47 5 12 12 27 2 34 -24z m602 -1 c24 -28 21 -38 -10 -38 l-28 0 25 -13 c30
-15 38 -58 15 -81 -35 -35 -99 -32 -136 5 -24 24 -17 39 19 39 l27 0 -25 13
c-19 10 -25 20 -25 47 0 31 4 36 35 47 43 14 79 7 103 -19z m180 4 c13 -12 17
-31 17 -84 l0 -70 -32 3 c-18 1 -45 -1 -60 -5 -53 -15 -94 34 -65 78 11 16 30
25 58 30 32 5 39 10 31 18 -9 9 -15 9 -24 0 -17 -17 -68 -15 -68 1 0 18 29 44
55 50 28 6 67 -3 88 -21z m156 17 c40 -14 65 -60 57 -104 -11 -58 -70 -88
-127 -65 -37 16 -49 37 -49 88 0 41 26 75 65 85 11 3 20 5 21 6 1 0 15 -4 33
-10z m460 0 c40 -14 65 -60 57 -104 -11 -58 -70 -88 -127 -65 -37 16 -49 37
-49 88 0 41 26 75 65 85 11 3 20 5 21 6 1 0 15 -4 33 -10z m387 1 c16 0 40
-35 49 -72 l7 -28 -61 0 c-50 0 -59 -3 -55 -15 7 -17 40 -20 49 -5 9 14 55 12
55 -2 -1 -60 -108 -75 -150 -21 -49 63 5 166 78 147 8 -2 20 -4 28 -4z m227
-2 c97 9 107 0 107 -100 l0 -68 -30 0 c-28 0 -29 1 -32 57 -2 46 -7 59 -20 61
-16 3 -18 -5 -18 -57 0 -61 0 -61 -30 -61 -28 0 -29 1 -32 57 -2 46 -7 59 -20
61 -16 3 -18 -5 -18 -57 l0 -61 -30 0 -30 0 0 85 0 86 40 -3 c22 -1 43 1 47 5
3 4 16 4 27 0 12 -4 29 -6 39 -5z m289 -16 c10 -8 20 -29 23 -46 13 -66 -41
-130 -90 -108 -24 11 -25 10 -25 -28 0 -38 -2 -40 -30 -40 l-30 0 0 120 0 120
45 -2 c25 0 48 1 51 5 8 7 35 -2 56 -21z m196 -9 c33 -36 30 -87 -8 -125 -27
-26 -36 -30 -68 -25 -73 12 -106 93 -62 150 34 43 99 43 138 0z m-2248 -15 c6
-24 12 -47 14 -53 1 -5 8 14 15 43 13 50 14 52 47 52 19 0 34 -1 34 -3 0 -2
-13 -39 -29 -83 l-29 -79 -38 0 -37 0 -28 83 -28 82 34 0 c32 0 35 -3 45 -42z
m190 -43 l0 -85 -35 0 -35 0 0 85 0 85 35 0 35 0 0 -85z"/>
<path d="M1550 7971 l0 -131 40 0 c73 0 101 25 115 103 8 43 -9 108 -35 132
-11 10 -41 20 -70 23 l-50 5 0 -132z"/>
<path d="M3376 7984 c-27 -26 -18 -34 39 -34 38 0 55 4 55 13 0 36 -65 51 -94
21z"/>
<path d="M3746 7867 c-26 -19 -17 -51 15 -55 30 -4 59 20 59 49 0 23 -46 27
-74 6z"/>
<path d="M4772 7988 c-26 -26 -13 -38 43 -38 57 0 66 8 39 34 -18 19 -65 21
-82 4z"/>
<path d="M12650 7936 c0 -40 24 -55 40 -25 15 27 3 59 -21 59 -15 0 -19 -7
-19 -34z"/>
<path d="M14710 8001 c0 -27 4 -31 26 -31 22 0 25 4 22 28 -2 19 -9 28 -25 30
-20 3 -23 -1 -23 -27z"/>
<path d="M16117 7963 c-12 -12 -7 -50 8 -63 21 -17 35 -3 35 36 0 26 -4 34
-18 34 -10 0 -22 -3 -25 -7z"/>
<path d="M12855 7970 c-3 -5 3 -10 15 -10 12 0 18 5 15 10 -3 6 -10 10 -15 10
-5 0 -12 -4 -15 -10z"/>
<path d="M13165 7970 c-3 -5 3 -10 15 -10 12 0 18 5 15 10 -3 6 -10 10 -15 10
-5 0 -12 -4 -15 -10z"/>
<path d="M13542 7968 c-17 -17 -15 -53 3 -68 22 -19 37 0 33 40 -3 37 -17 47
-36 28z"/>
<path d="M13730 7970 c0 -5 7 -10 15 -10 8 0 15 5 15 10 0 6 -7 10 -15 10 -8
0 -15 -4 -15 -10z"/>
<path d="M13725 7900 c3 -5 13 -10 21 -10 8 0 14 5 14 10 0 6 -9 10 -21 10
-11 0 -17 -4 -14 -10z"/>
<path d="M15035 7970 c-4 -6 5 -10 20 -10 15 0 24 4 20 10 -3 6 -12 10 -20 10
-8 0 -17 -4 -20 -10z"/>
<path d="M15495 7970 c3 -5 13 -10 21 -10 8 0 12 5 9 10 -3 6 -13 10 -21 10
-8 0 -12 -4 -9 -10z"/>
<path d="M15490 7900 c0 -5 9 -10 21 -10 11 0 17 5 14 10 -3 6 -13 10 -21 10
-8 0 -14 -4 -14 -10z"/>
<path d="M15669 7904 c-11 -14 -10 -15 11 -12 13 1 25 9 28 16 5 17 -23 15
-39 -4z"/>
<path d="M15862 7968 c-17 -17 -15 -53 3 -68 22 -19 37 0 33 40 -3 37 -17 47
-36 28z"/>
<path d="M16322 7968 c-17 -17 -15 -53 3 -68 22 -19 37 0 33 40 -3 37 -17 47
-36 28z"/>
<path d="M16705 7970 c-3 -5 3 -10 15 -10 12 0 18 5 15 10 -3 6 -10 10 -15 10
-5 0 -12 -4 -15 -10z"/>
<path d="M17192 7968 c-27 -27 -3 -90 25 -67 7 7 13 22 13 34 0 30 -22 49 -38
33z"/>
<path d="M17381 7958 c-9 -25 0 -60 17 -66 19 -6 33 34 22 62 -12 32 -28 33
-39 4z"/>
<path d="M14403 5053 c-12 -44 -9 -141 4 -154 10 -10 18 -10 38 -1 23 11 25
16 25 86 0 64 -3 77 -19 86 -30 16 -40 12 -48 -17z"/>
<path d="M6656 4947 c-11 -8 -17 -23 -14 -38 2 -20 8 -24 38 -24 30 0 36 4 38
24 4 22 -18 51 -38 51 -3 0 -14 -6 -24 -13z"/>
<path d="M9496 4947 c-11 -8 -17 -23 -14 -38 2 -20 8 -24 38 -24 30 0 36 4 38
24 4 22 -18 51 -38 51 -3 0 -14 -6 -24 -13z"/>
<path d="M9957 4932 c-23 -26 -22 -52 3 -52 11 0 20 5 20 10 0 6 9 10 19 10
11 0 23 -4 26 -10 3 -5 19 -10 35 -10 29 0 60 30 60 57 0 19 -31 16 -46 -4
-12 -17 -14 -17 -42 0 -38 22 -55 22 -75 -1z"/>
<path d="M3390 4750 l0 -180 84 0 c162 0 226 51 226 180 0 132 -57 179 -217
180 l-93 0 0 -180z m183 99 c32 -14 47 -49 47 -104 0 -61 -30 -93 -92 -101
l-48 -7 0 112 0 111 35 0 c19 0 45 -5 58 -11z"/>
<path d="M4960 4750 l0 -180 45 0 c40 0 45 3 45 22 l0 21 23 -21 c25 -24 75
-29 108 -12 30 17 49 64 49 125 0 61 -19 108 -49 125 -33 17 -89 12 -111 -10
l-20 -20 0 65 0 65 -45 0 -45 0 0 -180z m174 8 c22 -31 20 -84 -4 -108 -24
-24 -38 -25 -62 -3 -23 21 -25 95 -2 117 22 22 50 20 68 -6z"/>
<path d="M5880 4750 l0 -180 45 0 44 0 3 112 3 111 43 -112 c41 -105 45 -112
69 -109 23 3 31 15 67 110 23 60 44 108 49 108 4 0 7 -49 7 -110 l0 -110 40 0
40 0 0 180 0 180 -54 0 -54 0 -32 -77 c-18 -43 -39 -93 -46 -112 -8 -19 -17
-31 -21 -27 -4 3 -26 52 -49 109 l-41 102 -57 3 -56 3 0 -181z"/>
<path d="M8350 4751 l0 -181 45 0 45 0 0 54 0 54 62 7 c52 6 68 13 95 40 29
29 33 40 33 84 0 42 -5 56 -29 83 l-29 33 -111 3 -111 4 0 -181z m184 87 c9
-12 16 -28 16 -35 0 -25 -39 -53 -75 -53 l-35 0 0 55 0 55 39 0 c30 0 44 -6
55 -22z"/>
<path d="M3809 4825 c-77 -42 -76 -200 2 -240 36 -19 112 -19 149 0 26 13 50
42 50 59 0 10 -79 6 -85 -4 -11 -18 -73 -12 -85 9 -20 37 -13 41 80 41 l90 0
0 30 c0 38 -23 84 -52 104 -28 20 -114 20 -149 1z m119 -74 c3 -19 -1 -21 -41
-21 -49 0 -58 5 -50 27 14 37 85 33 91 -6z"/>
<path d="M4085 4815 c-24 -24 -31 -57 -19 -90 8 -21 49 -41 101 -50 50 -8 63
-23 38 -42 -19 -13 -57 -8 -63 8 -2 5 -23 9 -47 9 -39 0 -43 -2 -38 -21 9 -34
61 -59 125 -59 72 0 118 33 118 84 0 43 -23 63 -96 79 -39 9 -60 19 -62 30 -5
24 44 34 67 13 10 -9 34 -16 53 -16 31 0 35 3 31 20 -11 40 -51 60 -120 60
-55 0 -67 -4 -88 -25z"/>
<path d="M4399 4825 c-53 -29 -75 -124 -44 -189 21 -44 63 -66 124 -66 42 0
56 5 80 28 16 15 32 37 36 50 6 20 3 22 -30 22 -26 0 -42 -7 -55 -22 -15 -19
-22 -21 -46 -13 -60 21 -53 136 8 143 19 2 31 -3 40 -17 9 -15 23 -21 50 -21
49 0 50 20 4 66 -30 30 -40 34 -87 34 -30 -1 -66 -7 -80 -15z"/>
<path d="M4650 4740 c0 -139 17 -170 94 -170 23 0 42 9 60 26 l26 27 0 -27 c0
-24 3 -26 40 -26 l40 0 0 135 0 135 -45 0 -45 0 0 -88 c0 -93 -8 -112 -45
-112 -37 0 -45 19 -45 112 l0 88 -40 0 -40 0 0 -100z"/>
<path d="M5280 4705 l0 -135 45 0 45 0 0 88 c0 98 7 112 57 112 31 0 33 2 33
35 0 32 -2 35 -30 35 -19 0 -34 -7 -42 -20 -7 -11 -16 -20 -20 -20 -5 0 -8 9
-8 20 0 17 -7 20 -40 20 l-40 0 0 -135z"/>
<path d="M5518 4820 c-14 -11 -28 -29 -31 -40 -4 -17 0 -20 29 -20 19 0 45 7
59 16 18 12 28 13 44 4 41 -22 17 -43 -59 -53 -80 -10 -116 -82 -65 -132 29
-29 88 -34 123 -9 20 14 22 14 22 0 0 -12 10 -16 40 -16 l40 0 0 106 c0 103
-1 106 -29 135 -26 26 -37 29 -89 29 -44 0 -66 -5 -84 -20z m122 -148 c0 -30
-35 -55 -65 -48 -34 9 -33 41 3 54 43 16 62 14 62 -6z"/>
<path d="M6395 4829 c-25 -15 -45 -39 -45 -56 0 -18 55 -17 85 3 18 12 28 13
44 4 43 -22 20 -50 -42 -50 -18 0 -47 -9 -64 -20 -29 -17 -33 -25 -33 -64 0
-35 5 -48 22 -60 29 -20 102 -21 118 -1 7 8 16 15 21 15 5 0 9 -7 9 -15 0 -10
11 -15 35 -15 l35 0 0 109 c0 140 -9 153 -101 158 -36 2 -73 -1 -84 -8z m103
-166 c-4 -37 -50 -55 -75 -30 -26 26 1 49 65 56 9 1 12 -8 10 -26z"/>
<path d="M6640 4705 l0 -135 40 0 40 0 0 135 0 135 -40 0 -40 0 0 -135z"/>
<path d="M6805 4815 c-24 -24 -31 -57 -19 -90 8 -21 49 -41 101 -50 50 -8 63
-23 38 -42 -19 -13 -57 -8 -63 8 -2 5 -23 9 -47 9 -39 0 -43 -2 -38 -21 9 -34
61 -59 125 -59 72 0 118 33 118 84 0 43 -23 63 -96 79 -39 9 -60 19 -62 30 -5
24 44 34 67 13 10 -9 34 -16 53 -16 31 0 35 3 31 20 -11 40 -51 60 -120 60
-55 0 -67 -4 -88 -25z"/>
<path d="M7228 4824 c-37 -20 -58 -63 -58 -119 0 -89 47 -135 137 -135 55 0
86 17 108 60 20 39 20 40 -23 40 -25 0 -43 -7 -55 -20 -34 -40 -73 -20 -84 44
-11 68 57 118 89 66 9 -14 24 -20 51 -20 35 0 38 2 32 23 -4 12 -20 34 -36 50
-24 22 -38 27 -82 27 -28 -1 -64 -7 -79 -16z"/>
<path d="M7510 4813 c-57 -51 -58 -163 -3 -215 21 -19 35 -23 93 -23 58 0 72
4 93 23 55 52 54 164 -3 215 -26 23 -39 27 -90 27 -51 0 -64 -4 -90 -27z m130
-52 c15 -30 12 -92 -7 -113 -35 -39 -83 -8 -83 54 0 55 15 78 50 78 19 0 33
-7 40 -19z"/>
<path d="M7780 4705 l0 -135 45 0 45 0 0 95 c0 83 2 96 19 105 25 13 27 13 45
-6 12 -12 16 -37 16 -105 l0 -89 40 0 40 0 0 93 c0 91 8 117 36 117 33 0 44
-31 44 -121 l0 -89 40 0 40 0 0 109 c0 94 -3 112 -21 135 -27 34 -91 37 -126
4 l-23 -22 -16 22 c-21 30 -98 32 -116 2 -7 -11 -16 -20 -20 -20 -5 0 -8 9 -8
20 0 17 -7 20 -40 20 l-40 0 0 -135z"/>
<path d="M8680 4705 l0 -135 45 0 45 0 0 88 c0 96 7 112 52 112 25 0 28 3 28
35 0 29 -4 35 -22 35 -12 0 -32 -10 -45 -22 l-23 -21 0 21 c0 19 -6 22 -40 22
l-40 0 0 -135z"/>
<path d="M8928 4824 c-37 -20 -58 -63 -58 -119 0 -88 47 -135 135 -135 56 0
97 20 113 54 11 26 11 26 -28 26 -21 0 -42 -4 -45 -10 -11 -18 -73 -12 -85 9
-20 37 -13 41 80 41 90 0 90 0 90 25 0 38 -25 90 -51 109 -29 20 -114 21 -151
0z m120 -78 c3 -15 -4 -17 -45 -14 -54 3 -65 24 -23 45 28 14 62 -1 68 -31z"/>
<path d="M9229 4825 c-53 -29 -75 -124 -44 -189 21 -44 63 -66 124 -66 42 0
56 5 80 28 16 15 32 37 36 50 6 20 3 22 -30 22 -26 0 -42 -7 -55 -22 -15 -19
-22 -21 -46 -13 -60 21 -53 136 8 143 19 2 31 -3 40 -17 9 -15 23 -21 50 -21
49 0 50 20 4 66 -30 30 -40 34 -87 34 -30 -1 -66 -7 -80 -15z"/>
<path d="M9480 4705 l0 -135 40 0 40 0 0 135 0 135 -40 0 -40 0 0 -135z"/>
<path d="M9645 4818 c-33 -29 -38 -77 -11 -107 10 -11 42 -25 71 -31 67 -14
88 -35 51 -51 -20 -10 -30 -9 -50 5 -27 17 -96 22 -96 7 0 -6 11 -23 24 -38
23 -26 29 -28 101 -28 72 0 78 2 101 28 50 58 22 109 -71 129 -42 10 -61 19
-63 31 -5 25 27 33 60 14 36 -21 88 -23 88 -3 0 8 -8 24 -19 37 -15 19 -30 24
-88 27 -62 4 -72 2 -98 -20z"/>
<path d="M9955 4829 c-25 -15 -45 -39 -45 -56 0 -18 55 -17 85 3 18 12 28 13
44 4 43 -22 20 -50 -42 -50 -18 0 -47 -9 -64 -20 -29 -17 -33 -25 -33 -64 0
-35 5 -48 22 -60 29 -20 102 -21 118 -1 7 8 16 15 21 15 5 0 9 -7 9 -15 0 -10
11 -15 35 -15 l35 0 0 109 c0 140 -9 153 -101 158 -36 2 -73 -1 -84 -8z m103
-166 c-4 -37 -50 -55 -75 -30 -26 26 1 49 65 56 9 1 12 -8 10 -26z"/>
<path d="M10249 4825 c-39 -21 -62 -78 -56 -138 4 -42 10 -56 41 -84 31 -29
42 -33 91 -33 49 0 60 4 91 33 31 28 37 42 41 84 6 62 -17 117 -58 138 -35 19
-116 19 -150 0z m112 -62 c17 -20 17 -97 -1 -118 -16 -20 -54 -19 -71 2 -8 9
-14 35 -14 58 0 23 6 49 14 58 17 22 55 22 72 0z"/>
<path d="M10520 4821 c-5 -11 -10 -24 -10 -30 0 -17 46 -42 64 -35 22 8 31 50
16 69 -18 21 -57 19 -70 -4z"/>
<path d="M13773 4803 c-28 -11 -12 -51 37 -97 50 -47 57 -50 84 -40 29 11 17
49 -32 97 -45 45 -61 52 -89 40z"/>
<path d="M15017 4779 c-51 -42 -71 -80 -53 -104 12 -16 17 -17 43 -6 50 20 95
74 91 107 -4 41 -34 42 -81 3z"/>
<path d="M14320 4748 c-79 -11 -203 -69 -282 -133 -54 -44 -125 -128 -159
-192 -15 -27 -22 -31 -85 -37 -38 -4 -85 -9 -105 -12 -33 -6 -39 -2 -85 46
-163 174 -403 225 -606 127 -78 -38 -171 -120 -215 -191 -36 -55 -74 -170 -80
-238 -5 -46 -10 -59 -25 -64 -31 -10 -106 -63 -145 -103 -19 -20 -48 -65 -65
-101 -28 -61 -29 -71 -25 -155 4 -69 10 -101 28 -135 50 -94 105 -146 199
-185 40 -16 84 -19 380 -24 l335 -6 3 -40 c5 -85 24 -169 48 -215 32 -61 124
-149 189 -180 68 -33 201 -38 950 -39 562 -1 604 0 663 18 109 34 187 88 254
178 93 127 115 294 58 433 -34 82 -65 128 -118 178 -86 81 -196 122 -322 122
l-88 0 -12 30 c-11 26 -10 41 10 107 94 315 -40 625 -330 764 -107 51 -230 67
-370 47z m265 -95 c134 -42 263 -150 326 -274 49 -98 72 -250 53 -349 -10 -50
-30 -48 -87 8 -62 60 -158 123 -236 154 -50 20 -73 23 -211 22 -118 0 -165 -4
-195 -16 l-41 -16 -60 57 c-33 32 -87 73 -120 91 -32 18 -61 35 -63 36 -9 8
65 107 122 161 71 68 182 127 268 142 67 12 178 5 244 -16z m-1287 -148 c111
-26 193 -79 264 -169 22 -28 47 -54 56 -57 8 -3 47 1 86 9 142 27 255 -3 356
-97 l52 -47 -65 -53 c-36 -29 -79 -70 -96 -91 -41 -51 -91 -145 -108 -205 -19
-66 -39 -95 -65 -95 -11 0 -52 -9 -91 -21 -83 -25 -161 -79 -211 -146 -19 -27
-45 -60 -56 -76 l-22 -28 -306 1 c-365 1 -394 6 -479 84 -29 26 -53 53 -53 60
0 6 -8 25 -17 41 -10 19 -16 54 -16 95 0 125 79 224 215 269 l35 12 7 89 c11
152 56 246 160 335 53 45 126 78 211 95 59 12 74 11 143 -5z m1332 -400 c132
-55 248 -176 307 -320 15 -36 34 -70 43 -75 8 -5 38 -4 65 1 95 19 217 -10
299 -69 105 -77 172 -242 146 -361 -25 -114 -69 -187 -151 -247 -95 -70 -105
-71 -579 -77 -234 -3 -567 -3 -740 1 -307 7 -316 8 -365 31 -66 33 -121 92
-157 166 -98 207 63 455 296 455 89 0 86 -3 132 165 41 151 214 313 379 354
22 6 90 9 150 7 93 -3 120 -8 175 -31z"/>
<path d="M10520 4635 c-21 -25 3 -67 37 -63 34 4 52 31 37 56 -15 23 -57 27
-74 7z"/>
<path d="M4526 4347 c-11 -8 -17 -23 -14 -38 2 -20 8 -24 38 -24 30 0 36 4 38
24 4 22 -18 51 -38 51 -3 0 -14 -6 -24 -13z"/>
<path d="M4990 4330 c-38 -38 -16 -66 30 -38 16 10 24 10 40 0 43 -27 81 -12
93 36 4 17 1 22 -13 22 -11 0 -23 -8 -29 -17 -9 -17 -11 -17 -39 0 -39 22 -57
22 -82 -3z"/>
<path d="M3390 4151 l0 -181 45 0 45 0 0 54 0 54 62 7 c52 6 68 13 95 40 29
29 33 40 33 84 0 42 -5 56 -29 83 l-29 33 -111 3 -111 4 0 -181z m184 87 c9
-12 16 -28 16 -35 0 -25 -39 -53 -75 -53 l-35 0 0 55 0 55 39 0 c30 0 44 -6
55 -22z"/>
<path d="M6120 4265 l0 -65 -20 20 c-22 22 -78 27 -111 10 -30 -17 -49 -64
-49 -125 0 -61 19 -108 49 -125 33 -17 83 -12 108 12 l23 21 0 -21 c0 -19 5
-22 45 -22 l45 0 0 180 0 180 -45 0 -45 0 0 -65z m-16 -101 c34 -33 11 -134
-31 -134 -24 0 -53 39 -53 73 0 63 48 98 84 61z"/>
<path d="M6670 4295 l0 -35 55 0 55 0 0 -145 0 -145 40 0 40 0 0 145 0 145 55
0 55 0 0 35 0 35 -150 0 -150 0 0 -35z"/>
<path d="M9690 4263 l0 -66 -23 21 c-32 30 -96 30 -125 0 -42 -46 -54 -120
-28 -182 27 -65 98 -86 150 -45 l26 20 0 -20 c0 -18 6 -21 40 -21 l40 0 0 180
0 180 -40 0 -40 0 0 -67z m-16 -105 c42 -59 -8 -154 -62 -120 -31 20 -31 114
0 133 23 15 46 10 62 -13z"/>
<path d="M3720 4105 l0 -135 40 0 40 0 0 84 c0 95 11 116 61 116 27 0 29 3 29
35 0 32 -2 35 -30 35 -22 0 -33 -7 -44 -27 l-15 -28 -1 28 c0 25 -3 27 -40 27
l-40 0 0 -135z"/>
<path d="M3968 4224 c-37 -20 -58 -63 -58 -119 0 -57 21 -100 60 -120 37 -19
112 -19 149 -1 15 8 32 26 39 40 11 26 11 26 -28 26 -21 0 -42 -4 -45 -10 -11
-18 -73 -12 -85 9 -20 37 -13 41 80 41 90 0 90 0 90 25 0 38 -25 90 -51 109
-29 20 -114 21 -151 0z m120 -78 c3 -15 -4 -17 -45 -14 -54 3 -65 24 -23 45
28 14 62 -1 68 -31z"/>
<path d="M4238 4105 l47 -135 46 0 c35 0 49 4 54 18 9 21 85 245 85 249 0 2
-19 3 -43 3 l-42 0 -24 -91 c-13 -49 -27 -87 -31 -82 -6 8 -15 36 -40 131 -11
41 -11 42 -55 42 l-44 0 47 -135z"/>
<path d="M4510 4105 l0 -135 40 0 40 0 0 135 0 135 -40 0 -40 0 0 -135z"/>
<path d="M4675 4218 c-33 -29 -38 -77 -11 -107 10 -11 42 -25 71 -31 67 -14
88 -35 51 -51 -20 -10 -30 -9 -50 5 -27 17 -96 22 -96 7 0 -6 11 -23 24 -38
23 -26 29 -28 101 -28 72 0 78 2 101 28 50 58 22 109 -71 129 -42 10 -61 19
-63 31 -5 25 27 33 60 14 36 -21 88 -23 88 -3 0 8 -8 24 -19 37 -15 19 -30 24
-88 27 -62 4 -72 2 -98 -20z"/>
<path d="M4988 4224 c-37 -20 -58 -63 -58 -119 0 -90 47 -135 141 -135 44 0
55 4 84 33 59 59 57 159 -6 211 -24 21 -41 26 -82 26 -29 -1 -64 -7 -79 -16z
m111 -58 c16 -19 17 -87 2 -114 -13 -25 -53 -29 -70 -8 -21 26 -25 83 -7 111
18 28 57 33 75 11z"/>
<path d="M5298 4224 c-37 -20 -58 -63 -58 -119 0 -88 47 -135 135 -135 56 0
97 20 113 54 11 26 11 26 -28 26 -21 0 -42 -4 -45 -10 -11 -18 -73 -12 -85 9
-20 37 -13 41 80 41 90 0 90 0 90 25 0 38 -25 90 -51 109 -29 20 -114 21 -151
0z m120 -78 c3 -15 -4 -17 -45 -14 -54 3 -65 24 -23 45 28 14 62 -1 68 -31z"/>
<path d="M5575 4218 c-33 -29 -38 -77 -11 -107 10 -11 42 -25 71 -31 67 -14
88 -35 51 -51 -20 -10 -30 -9 -50 5 -27 17 -96 22 -96 7 0 -6 11 -23 24 -38
23 -26 29 -28 101 -28 72 0 78 2 101 28 50 58 22 109 -71 129 -42 10 -61 19
-63 31 -5 25 27 33 60 14 36 -21 88 -23 88 -3 0 8 -8 24 -19 37 -15 19 -30 24
-88 27 -62 4 -72 2 -98 -20z"/>
<path d="M6300 4213 c-57 -51 -58 -163 -3 -215 21 -19 35 -23 93 -23 58 0 72
4 93 23 55 52 54 164 -3 215 -26 23 -39 27 -90 27 -51 0 -64 -4 -90 -27z m130
-52 c15 -30 12 -92 -7 -113 -35 -39 -83 -8 -83 54 0 55 15 78 50 78 19 0 33
-7 40 -19z"/>
<path d="M7029 4225 c-77 -42 -76 -200 2 -240 36 -19 112 -19 149 0 26 13 50
42 50 59 0 10 -79 6 -85 -4 -11 -18 -73 -12 -85 9 -20 37 -13 41 80 41 l90 0
0 30 c0 38 -23 84 -52 104 -28 20 -114 20 -149 1z m119 -74 c3 -19 -1 -21 -41
-21 -49 0 -58 5 -50 27 14 37 85 33 91 -6z"/>
<path d="M7280 4105 l0 -135 45 0 45 0 0 94 c0 100 10 124 48 111 26 -7 32
-33 32 -127 l0 -78 35 0 35 0 0 84 c0 95 18 134 57 122 27 -8 33 -33 33 -128
l0 -78 41 0 41 0 -4 114 c-2 95 -6 117 -22 135 -26 29 -98 29 -126 1 l-20 -20
-20 20 c-31 31 -93 27 -119 -6 l-21 -27 0 27 c0 24 -3 26 -40 26 l-40 0 0
-135z"/>
<path d="M7740 4055 l0 -185 45 0 45 0 0 72 0 71 23 -21 c25 -24 75 -29 108
-12 30 17 49 64 49 125 0 61 -19 108 -49 125 -33 17 -89 12 -111 -10 l-20 -20
0 20 c0 17 -7 20 -45 20 l-45 0 0 -185z m174 103 c22 -31 20 -84 -4 -108 -24
-24 -38 -25 -62 -3 -23 21 -25 95 -2 117 22 22 50 20 68 -6z"/>
<path d="M8100 4213 c-57 -51 -58 -163 -3 -215 21 -19 35 -23 93 -23 58 0 72
4 93 23 55 52 54 164 -3 215 -26 23 -39 27 -90 27 -51 0 -64 -4 -90 -27z m130
-52 c15 -30 12 -92 -7 -113 -35 -39 -83 -8 -83 54 0 55 15 78 50 78 19 0 33
-7 40 -19z"/>
<path d="M8521 4214 c-63 -53 -65 -152 -5 -212 33 -33 36 -34 99 -30 50 3 70
9 90 28 37 34 32 50 -14 50 -22 0 -43 -4 -46 -10 -12 -19 -63 -11 -79 12 -8
12 -13 25 -10 30 3 4 46 8 95 8 l91 0 -7 33 c-12 58 -16 66 -46 92 -44 36
-125 36 -168 -1z m130 -50 c18 -21 1 -34 -47 -34 -36 0 -44 3 -44 18 0 36 65
47 91 16z"/>
<path d="M8931 4214 c-63 -53 -65 -152 -5 -212 33 -33 36 -34 99 -30 50 3 70
9 90 28 37 34 32 50 -14 50 -22 0 -43 -4 -46 -10 -12 -19 -63 -11 -79 12 -8
12 -13 25 -10 30 3 4 46 8 95 8 l91 0 -7 33 c-12 58 -16 66 -46 92 -44 36
-125 36 -168 -1z m130 -50 c18 -21 1 -34 -47 -34 -36 0 -44 3 -44 18 0 36 65
47 91 16z"/>
<path d="M9190 4105 l0 -135 45 0 45 0 0 95 c0 83 2 96 19 105 21 10 51 4 63
-14 4 -6 8 -50 8 -98 l0 -88 40 0 40 0 0 110 c0 104 -1 112 -25 135 -34 35
-96 35 -130 0 l-25 -24 0 24 c0 22 -4 25 -40 25 l-40 0 0 -135z"/>
<path d="M9879 4225 c-77 -42 -76 -200 2 -240 36 -19 112 -19 149 0 26 13 50
42 50 59 0 10 -79 6 -85 -4 -11 -18 -73 -12 -85 9 -20 37 -13 41 80 41 l90 0
0 30 c0 38 -23 84 -52 104 -28 20 -114 20 -149 1z m119 -74 c3 -19 -1 -21 -41
-21 -49 0 -58 5 -50 27 14 37 85 33 91 -6z"/>
<path d="M10130 4105 l0 -135 45 0 45 0 0 88 c0 96 7 112 52 112 25 0 28 3 28
35 0 29 -4 35 -22 35 -12 0 -32 -10 -45 -22 l-23 -21 0 21 c0 19 -6 22 -40 22
l-40 0 0 -135z"/>
<path d="M10378 4224 c-37 -20 -58 -63 -58 -119 0 -88 47 -135 135 -135 56 0
97 20 113 54 11 26 11 26 -28 26 -21 0 -42 -4 -45 -10 -11 -18 -73 -12 -85 9
-20 37 -13 41 80 41 90 0 90 0 90 25 0 38 -25 90 -51 109 -29 20 -114 21 -151
0z m120 -78 c3 -15 -4 -17 -45 -14 -54 3 -65 24 -23 45 28 14 62 -1 68 -31z"/>
<path d="M10679 4225 c-53 -29 -75 -124 -44 -189 16 -33 61 -66 90 -66 11 0
15 -5 11 -15 -3 -9 3 -19 14 -25 23 -13 16 -40 -11 -40 -12 0 -19 -7 -19 -20
0 -17 4 -19 28 -14 58 14 81 62 42 86 -26 16 -26 28 0 28 24 0 76 47 85 78 6
20 3 22 -30 22 -26 0 -42 -7 -55 -22 -15 -19 -22 -21 -46 -13 -60 21 -53 136
8 143 19 2 31 -3 40 -17 9 -15 23 -21 50 -21 49 0 50 20 4 66 -30 30 -40 34
-87 34 -30 -1 -66 -7 -80 -15z"/>
<path d="M10978 4224 c-37 -20 -58 -63 -58 -119 0 -90 47 -135 141 -135 44 0
55 4 84 33 59 59 57 159 -6 211 -24 21 -41 26 -82 26 -29 -1 -64 -7 -79 -16z
m111 -58 c16 -19 17 -87 2 -114 -13 -25 -53 -29 -70 -8 -21 26 -25 83 -7 111
18 28 57 33 75 11z"/>
<path d="M11259 4211 c-16 -16 -29 -39 -29 -50 0 -35 41 -69 100 -83 36 -9 56
-19 58 -30 5 -24 -34 -33 -63 -14 -31 20 -95 22 -95 2 0 -8 14 -26 31 -40 60
-51 199 -26 215 38 13 55 -19 87 -103 101 -50 8 -70 27 -48 45 16 13 65 6 65
-10 0 -6 18 -10 40 -10 42 0 50 12 27 41 -21 28 -54 39 -112 39 -49 0 -60 -4
-86 -29z"/>
<path d="M15197 4164 c-11 -11 -8 -49 5 -62 7 -7 39 -12 73 -12 50 0 66 4 81
21 14 15 16 24 8 37 -9 13 -29 18 -86 20 -40 1 -77 0 -81 -4z"/>
<path d="M6760 3550 l0 -180 40 0 40 0 0 180 0 180 -40 0 -40 0 0 -180z"/>
<path d="M4290 3679 c0 -22 -5 -32 -20 -36 -14 -4 -20 -14 -20 -33 0 -19 6
-29 20 -33 18 -5 20 -14 20 -90 0 -77 2 -87 22 -101 12 -9 42 -16 65 -16 34 0
43 4 43 18 0 22 -11 37 -32 45 -15 5 -18 19 -18 77 0 68 1 70 25 70 21 0 25 5
25 30 0 25 -4 30 -25 30 -22 0 -25 4 -25 35 0 34 -1 35 -40 35 -38 0 -40 -2
-40 -31z"/>
<path d="M3430 3613 c-56 -51 -59 -158 -6 -212 21 -20 37 -26 89 -29 57 -4 66
-1 95 23 18 15 32 34 32 42 0 15 -23 15 -108 -3 -37 -7 -62 8 -62 37 0 17 9
19 90 19 84 0 90 1 90 20 0 34 -26 85 -55 108 -43 34 -125 31 -165 -5z m131
-49 c18 -21 1 -34 -47 -34 -49 0 -59 18 -23 43 22 16 52 12 70 -9z"/>
<path d="M3700 3505 l0 -135 40 0 40 0 0 89 c0 68 4 93 16 105 18 19 20 19 45
6 17 -9 19 -22 19 -105 l0 -95 40 0 40 0 0 95 c0 84 2 95 20 105 14 8 26 8 40
0 18 -10 20 -21 20 -105 l0 -95 40 0 40 0 0 113 c0 106 -2 115 -23 135 -33 31
-100 30 -124 -1 l-18 -24 -18 24 c-25 31 -88 32 -117 1 l-20 -22 0 22 c0 19
-6 22 -40 22 l-40 0 0 -135z"/>
<path d="M4501 3614 c-63 -53 -65 -152 -5 -212 33 -33 36 -34 99 -30 50 3 70
9 90 28 37 34 32 50 -14 50 -22 0 -43 -4 -46 -10 -12 -19 -63 -11 -79 12 -8
12 -13 25 -10 30 3 4 46 8 95 8 l91 0 -7 33 c-12 58 -16 66 -46 92 -44 36
-125 36 -168 -1z m130 -50 c18 -21 1 -34 -47 -34 -36 0 -44 3 -44 18 0 36 65
47 91 16z"/>
<path d="M4760 3505 l0 -135 45 0 45 0 0 95 c0 83 2 96 19 105 25 13 27 13 45
-6 12 -12 16 -37 16 -105 l0 -89 40 0 40 0 0 93 c0 91 8 117 36 117 33 0 44
-31 44 -121 l0 -89 40 0 40 0 0 109 c0 94 -3 112 -21 135 -27 34 -91 37 -126
4 l-23 -22 -16 22 c-21 30 -98 32 -116 2 -7 -11 -16 -20 -20 -20 -5 0 -8 9 -8
20 0 17 -7 20 -40 20 l-40 0 0 -135z"/>
<path d="M5230 3455 l0 -185 40 0 40 0 0 72 0 71 23 -21 c35 -33 91 -30 127 6
54 54 50 177 -7 221 -35 28 -90 27 -120 -1 l-23 -21 0 21 c0 19 -6 22 -40 22
l-40 0 0 -185z m164 109 c34 -33 11 -134 -31 -134 -26 0 -53 39 -53 77 0 61
48 94 84 57z"/>
<path d="M5598 3624 c-37 -20 -58 -63 -58 -119 0 -90 47 -135 141 -135 44 0
55 4 84 33 59 59 57 159 -6 211 -24 21 -41 26 -82 26 -29 -1 -64 -7 -79 -16z
m111 -58 c16 -19 17 -87 2 -114 -13 -25 -53 -29 -70 -8 -21 26 -25 83 -7 111
18 28 57 33 75 11z"/>
<path d="M5960 3505 l0 -135 45 0 45 0 0 88 c0 98 7 112 57 112 31 0 33 2 33
35 0 32 -2 35 -30 35 -19 0 -34 -7 -42 -20 -7 -11 -16 -20 -20 -20 -5 0 -8 9
-8 20 0 17 -7 20 -40 20 l-40 0 0 -135z"/>
<path d="M6209 3625 c-77 -42 -76 -200 2 -240 36 -19 112 -19 149 0 26 13 50
42 50 59 0 10 -79 6 -85 -4 -11 -18 -73 -12 -85 9 -20 37 -13 41 80 41 l90 0
0 30 c0 38 -23 84 -52 104 -28 20 -114 20 -149 1z m119 -74 c3 -19 -1 -21 -41
-21 -49 0 -58 5 -50 27 14 37 85 33 91 -6z"/>
<path d="M6489 3611 c-16 -16 -29 -34 -29 -40 0 -16 72 -13 94 4 25 19 31 19
51 -2 16 -16 16 -17 -1 -30 -10 -7 -30 -13 -45 -13 -91 0 -138 -71 -88 -134
16 -21 29 -26 63 -26 23 0 52 7 64 16 20 14 22 14 22 0 0 -12 10 -16 40 -16
l40 0 0 106 c0 103 -1 106 -29 135 -26 26 -36 29 -91 29 -55 0 -65 -3 -91 -29z
m131 -134 c0 -28 -32 -58 -58 -55 -37 4 -39 49 -2 59 40 11 60 10 60 -4z"/>
<path d="M6912 3438 c-28 -28 -3 -72 39 -66 30 4 47 33 33 56 -14 21 -55 27
-72 10z"/>
<path d="M19070 115 l24 -25 23 22 c13 12 23 23 23 25 0 2 -21 3 -47 3 l-46 0
23 -25z"/>
</g>
</svg>
