<?xml version="1.0" standalone="no"?>
<!DOCTYPE svg PUBLIC "-//W3C//DTD SVG 20010904//EN"
 "http://www.w3.org/TR/2001/REC-SVG-20010904/DTD/svg10.dtd">
<svg version="1.0" xmlns="http://www.w3.org/2000/svg"
 width="1897.000000pt" height="862.000000pt" viewBox="0 0 1897.000000 862.000000"
 preserveAspectRatio="xMidYMid meet">

<g transform="translate(0.000000,862.000000) scale(0.100000,-0.100000)"
fill="#000000" stroke="none">
<path d="M0 4310 l0 -4310 2713 0 2714 0 11 24 c6 14 22 32 36 41 27 18 87 17
93 -2 3 -8 -6 -10 -30 -6 -27 4 -40 0 -56 -16 -11 -11 -21 -25 -21 -31 0 -17
136 -12 150 5 7 8 27 15 45 15 18 0 38 -7 45 -15 16 -19 40 -20 40 -1 0 19 84
20 100 1 24 -29 40 -17 40 30 0 33 4 45 15 45 10 0 15 -10 15 -33 0 -31 2 -33
28 -29 18 2 33 -2 41 -12 17 -20 45 -21 61 -1 16 19 64 19 80 0 16 -19 34 -19
50 0 17 21 67 19 80 -2 10 -17 10 -17 20 -1 14 23 78 25 86 3 8 -19 38 -19 54
0 17 20 80 20 80 0 0 -19 7 -19 26 0 20 19 68 19 84 0 17 -21 110 -21 110 0 0
8 7 15 15 15 8 0 15 -7 15 -15 0 -9 9 -15 25 -15 16 0 25 6 25 15 0 8 7 15 15
15 8 0 15 -7 15 -15 0 -8 7 -15 15 -15 8 0 15 6 15 14 0 20 169 20 177 0 7
-19 103 -20 103 -1 0 21 90 20 113 -1 16 -15 20 -14 46 1 36 21 75 22 91 2 16
-19 40 -19 40 0 0 8 7 15 15 15 8 0 15 -7 15 -15 0 -10 10 -15 30 -15 20 0 30
5 30 15 0 8 7 15 15 15 8 0 15 -7 15 -15 0 -19 19 -19 44 0 26 20 76 20 76 0
0 -19 24 -19 40 0 16 19 74 19 90 0 17 -21 103 -20 121 1 8 10 24 14 46 12 31
-4 33 -2 33 29 0 23 5 33 15 33 11 0 15 -12 15 -45 0 -32 4 -45 14 -45 8 0 16
7 20 15 7 20 60 20 80 0 19 -19 30 -19 46 0 17 20 70 20 70 0 0 -11 12 -15 50
-15 35 0 50 4 50 13 0 17 68 21 86 6 8 -7 14 -7 19 1 9 15 51 12 65 -5 16 -19
40 -19 40 0 0 8 7 15 15 15 8 0 15 -7 15 -15 0 -8 7 -15 15 -15 8 0 15 6 15
14 0 20 99 21 106 1 4 -8 12 -15 20 -15 10 0 14 13 14 45 0 33 4 45 15 45 10
0 15 -10 15 -33 0 -32 1 -33 35 -29 25 3 36 0 41 -12 8 -20 40 -21 48 -1 7 20
60 20 80 0 8 -8 19 -15 24 -15 5 0 15 7 22 15 7 8 25 15 41 15 19 0 29 -5 29
-15 0 -11 12 -15 50 -15 36 0 50 4 50 14 0 19 85 20 104 1 18 -19 36 -19 36
-1 0 9 13 14 40 14 40 1 55 -13 23 -21 -14 -4 -12 -5 5 -6 13 -1 22 5 22 14 0
8 7 15 15 15 8 0 15 -7 15 -15 0 -8 7 -15 15 -15 8 0 15 6 15 14 0 19 84 20
100 1 16 -19 44 -19 60 0 16 20 69 20 76 0 8 -19 24 -19 24 0 0 8 7 15 15 15
8 0 15 -7 15 -15 0 -8 7 -15 15 -15 8 0 15 6 15 14 0 19 85 20 104 1 19 -19
42 -19 50 0 7 20 60 20 80 0 8 -8 19 -15 25 -15 6 0 11 7 11 15 0 8 7 15 15
15 8 0 15 -7 15 -15 0 -19 24 -19 40 0 17 20 70 20 70 0 0 -11 12 -15 50 -15
l50 0 0 45 c0 33 4 45 15 45 10 0 15 -10 15 -33 0 -31 2 -33 28 -29 18 2 33
-2 41 -12 17 -20 28 -20 47 -1 9 8 28 15 43 15 16 0 34 -7 41 -15 24 -29 40
-18 40 30 0 33 4 45 15 45 10 0 15 -10 15 -33 0 -31 2 -33 28 -29 18 2 35 -2
45 -12 20 -20 37 -21 37 -1 0 8 7 15 15 15 8 0 15 -7 15 -15 0 -8 9 -15 20
-15 17 0 20 7 20 45 0 25 5 45 10 45 6 0 10 -20 10 -45 0 -38 3 -45 20 -45 11
0 20 7 20 15 0 8 5 15 10 15 6 0 10 -7 10 -15 0 -19 34 -19 50 0 7 8 25 15 41
15 26 0 29 4 29 30 0 20 5 30 15 30 11 0 15 -12 15 -45 0 -37 3 -45 19 -45 10
0 21 7 25 15 7 20 55 19 78 -2 18 -16 21 -16 49 1 17 10 41 16 55 13 22 -4 24
-1 24 29 0 24 5 34 15 34 11 0 15 -12 15 -45 0 -48 16 -59 40 -30 17 20 59 19
82 -2 17 -15 19 -15 37 1 22 20 77 18 74 -1 -4 -19 101 -17 117 2 16 19 64 19
80 0 17 -20 103 -20 120 0 17 20 67 19 78 -1 9 -16 11 -16 33 0 29 20 73 21
89 1 16 -19 40 -20 40 -1 0 20 99 21 106 1 4 -8 15 -15 25 -15 16 0 19 8 19
45 0 25 5 45 10 45 6 0 10 -15 10 -34 0 -34 1 -35 35 -29 26 4 36 2 41 -11 8
-20 38 -21 54 -1 17 20 59 19 82 -2 18 -16 21 -16 47 0 37 21 81 22 81 2 0 -8
5 -15 10 -15 6 0 10 7 10 15 0 8 7 15 15 15 8 0 15 -7 15 -15 0 -8 7 -15 15
-15 8 0 15 6 15 14 0 16 78 20 96 5 8 -7 14 -6 19 1 9 15 51 12 65 -5 16 -19
34 -19 50 0 16 19 64 19 80 0 16 -19 40 -20 40 -1 0 19 84 20 100 1 7 -8 22
-15 34 -15 17 0 19 2 6 11 -11 8 -12 12 -2 16 6 2 12 13 12 24 0 10 7 19 15
19 8 0 15 -9 15 -20 0 -11 7 -20 15 -20 21 0 19 -18 -2 -23 -12 -3 -9 -5 8 -6
15 0 32 6 39 14 16 19 74 19 90 0 16 -19 34 -19 50 0 17 20 70 20 70 0 0 -13
311 -15 2735 -15 l2735 0 0 4310 0 4310 -9485 0 -9485 0 0 -4310z m18378 3798
c28 -28 1 -75 -37 -63 -25 8 -34 31 -21 56 12 21 40 25 58 7z m-445 -12 c97
-41 134 -169 74 -258 -26 -37 -87 -82 -98 -71 -4 5 -9 29 -11 56 -3 42 -1 47
18 47 46 0 62 43 48 128 -6 39 -9 43 -28 36 -40 -13 -124 -16 -146 -4 -25 14
-30 11 -34 -21 -1 -13 -6 -35 -10 -49 -11 -40 9 -79 44 -87 17 -3 29 -11 27
-17 -6 -17 -42 -19 -57 -1 -20 24 -29 18 -17 -11 7 -15 23 -27 40 -31 20 -4
27 -11 27 -29 0 -30 -7 -30 -53 1 -54 38 -80 94 -75 167 5 68 26 102 84 135
45 26 118 30 167 9z m-568 -32 c23 -25 25 -34 25 -131 0 -102 -1 -105 -29
-134 -29 -28 -32 -29 -134 -29 -97 0 -106 2 -131 25 -25 23 -26 28 -26 136 0
102 2 115 22 136 20 21 29 23 135 23 110 0 115 -1 138 -26z m1255 -70 c11 -10
16 -42 18 -109 l4 -95 -36 0 -36 0 0 74 c0 83 -13 106 -49 86 -18 -9 -21 -20
-21 -85 l0 -75 -35 0 -35 0 0 110 0 110 30 0 c21 0 30 -5 30 -17 0 -14 2 -15
18 -1 35 31 82 32 112 2z m-230 -94 l0 -110 -35 0 -35 0 0 110 0 110 35 0 35
0 0 -110z m-15830 51 c0 -25 3 -28 26 -23 30 5 44 -10 44 -48 0 -35 -17 -50
-57 -50 l-33 0 0 75 c0 43 4 75 10 75 6 0 10 -13 10 -29z m120 19 c0 -5 -7
-10 -15 -10 -8 0 -15 5 -15 10 0 6 7 10 15 10 8 0 15 -4 15 -10z m37 -102 c-2
-24 -4 -7 -4 37 0 44 2 63 4 43 2 -21 2 -57 0 -80z m53 102 c0 -5 -4 -10 -10
-10 -5 0 -10 5 -10 10 0 6 5 10 10 10 6 0 10 -4 10 -10z m120 -63 l0 -74 -40
-1 c-34 -2 -42 2 -52 23 -8 19 -8 31 1 51 9 22 17 25 41 22 27 -4 30 -2 30 24
0 15 5 28 10 28 6 0 10 -31 10 -73z m220 0 l0 -74 -40 -1 c-34 -2 -42 2 -52
23 -8 19 -8 31 1 51 9 22 17 25 41 22 27 -4 30 -2 30 24 0 15 5 28 10 28 6 0
10 -31 10 -73z m790 63 c0 -5 -4 -10 -10 -10 -5 0 -10 5 -10 10 0 6 5 10 10
10 6 0 10 -4 10 -10z m-2973 -69 c22 -60 23 -97 2 -58 -6 10 -22 17 -39 17
-17 0 -33 -7 -39 -17 -17 -31 -22 -8 -7 33 42 116 48 118 83 25z m967 58 c-6
-10 -64 -8 -64 2 0 5 16 8 35 7 19 -1 32 -5 29 -9z m426 -19 c0 -28 3 -30 35
-30 32 0 35 2 35 30 0 17 5 30 10 30 6 0 10 -30 10 -70 0 -40 -4 -70 -10 -70
-5 0 -10 14 -10 30 0 28 -3 30 -35 30 -32 0 -35 -2 -35 -30 0 -16 -4 -30 -10
-30 -6 0 -10 30 -10 70 0 40 4 70 10 70 6 0 10 -13 10 -30z m1340 15 c19 -22
8 -49 -27 -65 -22 -10 -33 -22 -33 -37 0 -13 -4 -23 -10 -23 -6 0 -10 30 -10
70 l0 70 34 0 c18 0 39 -7 46 -15z m-2070 -9 c0 -8 6 -17 13 -20 10 -5 10 -7
0 -12 -7 -3 -13 -18 -13 -34 0 -16 6 -30 13 -33 6 -2 9 -8 5 -12 -16 -17 -38
5 -38 38 0 18 -5 38 -12 45 -9 9 -9 12 0 12 7 0 12 7 12 15 0 8 5 15 10 15 6
0 10 -6 10 -14z m2476 -16 c8 0 14 -4 14 -10 0 -5 -7 -10 -15 -10 -9 0 -15 -9
-15 -25 0 -14 7 -28 15 -31 22 -9 18 -24 -5 -24 -17 0 -20 7 -20 39 0 22 -6
42 -12 45 -10 5 -10 7 0 12 6 3 13 13 13 22 1 15 2 15 6 0 2 -10 11 -18 19
-18z m-3005 -26 c14 -37 -13 -78 -47 -71 -21 4 -24 0 -24 -24 0 -16 -4 -29
-10 -29 -6 0 -10 31 -10 73 l0 74 40 1 c35 2 42 -2 51 -24z m67 15 c-12 -7
-18 -22 -18 -49 0 -22 -4 -40 -10 -40 -5 0 -10 23 -10 50 0 48 1 50 28 50 23
-1 24 -2 10 -11z m100 -1 c7 -7 12 -20 12 -30 0 -14 -8 -18 -35 -18 -19 0 -35
-4 -35 -10 0 -5 14 -10 30 -10 17 0 30 -4 30 -10 0 -14 -54 -12 -68 2 -15 15
-15 61 0 76 7 7 21 12 33 12 12 0 26 -5 33 -12z m92 3 c0 -5 -12 -11 -27 -13
l-28 -4 28 -14 c19 -9 27 -20 25 -34 -3 -24 -44 -34 -61 -17 -8 8 -3 11 16 11
15 0 27 5 27 10 0 6 -4 10 -8 10 -5 0 -17 6 -27 14 -16 12 -17 16 -6 30 14 17
61 22 61 7z m98 -3 c7 -7 12 -20 12 -30 0 -14 -8 -18 -35 -18 -19 0 -35 -4
-35 -10 0 -5 14 -10 30 -10 17 0 30 -4 30 -10 0 -14 -54 -12 -68 2 -7 7 -12
24 -12 38 0 31 17 50 45 50 12 0 26 -5 33 -12z m109 0 c15 -12 18 -88 4 -88
-6 0 -11 17 -13 38 -2 29 -7 37 -23 37 -16 0 -21 -8 -23 -37 -5 -55 -22 -46
-22 10 0 48 0 49 32 50 18 0 38 -4 45 -10z m173 -7 c5 -11 10 -33 10 -50 0
-29 -2 -31 -40 -31 -27 0 -43 5 -46 15 -9 21 14 45 43 45 15 0 22 4 17 11 -3
6 -17 9 -30 6 -13 -2 -24 -1 -24 3 0 26 56 27 70 1z m105 10 c3 -5 -7 -11 -22
-13 -22 -2 -29 -9 -31 -30 -3 -26 0 -28 30 -28 30 -1 31 -2 15 -14 -12 -9 -14
-16 -7 -21 14 -9 3 -25 -18 -24 -10 0 -12 3 -5 6 8 3 4 13 -12 31 -27 29 -33
70 -13 90 14 14 54 16 63 3z m93 -43 l3 -46 -38 1 c-31 2 -39 6 -41 25 -3 18
2 23 27 28 17 4 31 11 31 16 0 6 -11 8 -25 6 -17 -4 -25 -1 -25 9 0 10 10 13
33 11 31 -3 32 -5 35 -50z m110 40 c7 -7 12 -24 12 -38 0 -34 -17 -50 -52 -50
-37 0 -57 38 -40 75 13 27 58 35 80 13z m500 -40 l3 -46 -38 1 c-31 2 -39 6
-41 25 -3 18 2 23 27 28 17 4 31 11 31 16 0 6 -11 8 -25 6 -17 -4 -25 -1 -25
9 0 10 10 13 33 11 31 -3 32 -5 35 -50z m159 -25 c-2 -16 -4 -3 -4 27 0 30 2
43 4 28 2 -16 2 -40 0 -55z m103 27 c0 -27 -4 -50 -10 -50 -5 0 -10 23 -10 50
0 28 5 50 10 50 6 0 10 -22 10 -50z m218 -2 l3 -48 -36 0 c-23 0 -38 6 -41 15
-8 20 13 45 37 45 11 0 19 5 19 11 0 7 -10 9 -25 7 -14 -3 -25 -2 -25 2 0 14
15 21 40 18 22 -3 25 -8 28 -50z m220 40 c7 -7 12 -20 12 -30 0 -14 -8 -18
-36 -18 -21 0 -33 -4 -29 -10 3 -5 20 -10 36 -10 18 0 28 -4 24 -10 -3 -5 -20
-10 -36 -10 -38 0 -58 37 -41 75 13 27 49 34 70 13z m92 2 c0 -5 -9 -10 -20
-10 -11 0 -20 -4 -20 -10 0 -5 4 -10 8 -10 5 0 17 -6 27 -14 16 -12 17 -16 6
-30 -14 -17 -61 -22 -61 -7 0 5 12 11 28 13 l27 4 -27 14 c-26 12 -36 38 -21
53 10 11 53 8 53 -3z m433 -1 c-19 -7 -23 -16 -23 -49 0 -22 -4 -40 -10 -40
-5 0 -10 22 -10 48 0 48 0 49 33 50 28 0 29 -1 10 -9z m113 -14 c15 -23 15
-27 0 -50 -28 -42 -96 -24 -96 25 0 49 68 67 96 25z m54 -31 c0 -30 -5 -64
-10 -75 -11 -20 -50 -27 -50 -9 0 6 -53 10 -140 10 -87 0 -140 4 -140 10 0 15
287 13 292 -2 2 -6 10 -8 16 -4 7 4 12 31 12 67 0 33 4 59 10 59 6 0 10 -25
10 -56z m98 44 c7 -7 12 -20 12 -30 0 -14 -8 -18 -35 -18 -19 0 -35 -4 -35
-10 0 -5 14 -10 30 -10 17 0 30 -4 30 -10 0 -14 -54 -12 -68 2 -7 7 -12 24
-12 38 0 31 17 50 45 50 12 0 26 -5 33 -12z m180 0 c7 -7 12 -24 12 -38 0 -34
-17 -50 -52 -50 -37 0 -57 38 -40 75 13 27 58 35 80 13z m92 2 c0 -5 -9 -10
-20 -10 -26 0 -26 -16 0 -23 46 -12 33 -57 -17 -57 -33 0 -28 18 5 22 l27 4
-27 14 c-26 12 -36 38 -21 53 10 11 53 8 53 -3z m-3320 -110 c0 -6 -27 -10
-60 -10 -33 0 -60 4 -60 10 0 6 27 10 60 10 33 0 60 -4 60 -10z m790 0 c0 -6
-128 -10 -365 -10 -237 0 -365 4 -365 10 0 6 128 10 365 10 237 0 365 -4 365
-10z m290 0 c0 -6 -43 -10 -110 -10 -67 0 -110 4 -110 10 0 6 43 10 110 10 67
0 110 -4 110 -10z m1280 0 c0 -7 -178 -10 -515 -10 -337 0 -515 3 -515 10 0 7
178 10 515 10 337 0 515 -3 515 -10z m970 0 c0 -6 -68 -10 -185 -10 -117 0
-185 4 -185 10 0 6 68 10 185 10 117 0 185 -4 185 -10z m-370 -1185 c0 -20 -5
-25 -24 -25 -13 0 -26 6 -29 13 -7 22 4 37 29 37 19 0 24 -5 24 -25z m380 -89
l0 -114 -65 0 c-75 -1 -95 16 -95 80 0 52 30 81 76 76 33 -4 34 -3 34 34 0 34
3 38 25 38 l25 0 0 -114z m2230 94 c0 -13 -7 -20 -20 -20 -11 0 -20 -7 -20
-15 0 -8 7 -15 15 -15 8 0 15 -9 15 -20 0 -11 -7 -20 -15 -20 -12 0 -15 -13
-15 -60 l0 -60 -30 0 -30 0 0 60 c0 33 -4 60 -10 60 -5 0 -10 9 -10 20 0 11 4
20 10 20 5 0 12 11 16 25 7 30 29 44 67 45 20 0 27 -5 27 -20z m120 -5 c-13
-14 -32 -25 -42 -25 -18 0 -18 1 -1 25 10 14 28 25 42 25 l24 0 -23 -25z m130
-90 l0 -115 -25 0 -25 0 0 115 0 115 25 0 25 0 0 -115z m95 90 c0 -22 -31 -33
-47 -17 -17 17 -1 44 24 40 15 -2 23 -10 23 -23z m-3853 -2 c22 -19 23 -42 4
-68 -12 -17 -12 -21 5 -33 25 -17 24 -53 -1 -80 -17 -18 -32 -22 -85 -22 l-65
0 0 110 0 110 62 0 c43 0 67 -5 80 -17z m699 -64 l23 -82 25 82 c22 76 26 81
52 81 l27 0 -36 -110 c-36 -108 -37 -110 -67 -110 -30 0 -31 2 -67 110 l-36
110 28 0 c26 0 29 -5 51 -81z m2219 61 c44 -44 15 -116 -51 -126 -36 -6 -39
-9 -39 -40 0 -30 -3 -34 -25 -34 l-25 0 0 110 0 110 60 0 c47 0 64 -4 80 -20z
m420 -15 c0 -18 5 -25 20 -25 13 0 20 -7 20 -20 0 -13 -7 -20 -20 -20 -16 0
-20 -7 -20 -36 0 -27 5 -37 20 -41 11 -3 20 -14 20 -24 0 -15 -7 -19 -33 -19
-45 0 -57 15 -57 71 0 32 -5 49 -15 53 -8 3 -15 12 -15 21 0 8 7 15 15 15 8 0
15 9 15 19 0 17 12 25 43 30 4 0 7 -10 7 -24z m-3162 -41 c14 -10 22 -25 22
-45 0 -28 -1 -29 -50 -29 -41 0 -48 -3 -43 -16 4 -12 16 -15 45 -12 34 3 38 1
36 -17 -5 -31 -82 -34 -114 -4 -71 67 24 179 104 123z m189 5 c7 -7 14 -6 18
1 3 5 19 10 35 10 41 0 60 -32 60 -102 0 -58 0 -58 -30 -58 l-30 0 0 61 c0 52
-2 60 -17 57 -14 -2 -19 -15 -21 -61 -3 -53 -5 -57 -27 -57 -23 0 -25 4 -25
48 0 55 -11 77 -34 69 -12 -5 -16 -20 -16 -62 0 -52 -1 -55 -25 -55 -25 0 -25
1 -25 79 l0 79 63 0 c34 0 67 -4 74 -9z m533 -69 c0 -79 0 -80 -25 -80 -25 0
-25 1 -25 80 0 79 0 80 25 80 25 0 25 -1 25 -80z m180 60 c6 -10 10 -46 10
-79 0 -58 -1 -61 -25 -61 -22 0 -24 4 -27 58 -3 49 -6 57 -23 57 -17 0 -20 -8
-23 -57 -3 -54 -5 -58 -27 -58 -24 0 -25 2 -25 79 l0 79 65 0 c53 0 67 -3 75
-18z m377 -2 c54 -50 12 -138 -66 -138 -73 0 -108 84 -56 135 32 33 89 34 122
3z m255 5 c14 -12 18 -31 18 -79 l0 -62 -60 0 c-49 0 -63 4 -74 20 -25 36 5
78 56 78 15 0 28 4 28 9 0 14 -22 19 -52 10 -23 -6 -28 -4 -28 11 0 10 6 21
13 23 27 11 81 6 99 -10z m179 6 c45 -23 44 -115 -1 -139 -24 -13 -76 -13
-100 0 -42 23 -44 106 -3 138 20 15 77 16 104 1z m287 -2 c9 -7 16 -7 24 1 16
16 61 15 76 0 7 -7 12 -40 12 -80 0 -66 -1 -68 -25 -68 -24 0 -25 3 -25 55 0
42 -4 57 -16 62 -23 8 -34 -14 -34 -69 0 -44 -2 -48 -25 -48 -24 0 -25 3 -25
55 0 42 -4 57 -16 62 -23 8 -34 -14 -34 -69 0 -44 -2 -48 -25 -48 -25 0 -25 1
-25 79 l0 79 63 0 c34 0 68 -5 75 -11z m270 -3 c14 -10 22 -25 22 -45 0 -28
-1 -29 -50 -29 -41 0 -48 -3 -43 -16 4 -12 16 -15 45 -12 34 3 38 1 36 -17 -5
-31 -82 -34 -114 -4 -71 67 24 179 104 123z m102 -44 c0 -52 2 -60 19 -60 23
0 31 19 31 76 0 40 2 44 25 44 25 0 25 -1 25 -80 0 -79 0 -80 -25 -80 -14 0
-25 5 -25 11 0 8 -4 8 -14 0 -8 -7 -27 -11 -43 -9 -36 4 -53 38 -53 106 0 51
0 52 30 52 l30 0 0 -60z m531 49 c45 -23 44 -115 -1 -139 -24 -13 -76 -13
-100 0 -42 23 -44 106 -3 138 20 15 77 16 104 1z m169 -8 c0 -9 -10 -21 -22
-26 -19 -8 -24 -19 -26 -62 -3 -49 -5 -53 -28 -53 -23 0 -24 2 -24 79 l0 80
50 -1 c40 0 50 -3 50 -17z m410 -1 c28 -28 27 -87 -2 -117 -27 -29 -86 -31
-119 -4 -18 14 -24 29 -24 61 0 32 6 47 24 61 32 26 95 25 121 -1z m190 -60
c0 -79 0 -80 -25 -80 -25 0 -25 1 -25 80 0 79 0 80 25 80 25 0 25 -1 25 -80z
m177 58 c54 -50 12 -138 -66 -138 -73 0 -108 84 -56 135 32 33 89 34 122 3z
m-3427 -53 c0 -11 -12 -15 -45 -15 -33 0 -45 4 -45 15 0 11 12 15 45 15 33 0
45 -4 45 -15z m8540 -485 c0 -5 -4 -10 -10 -10 -5 0 -10 5 -10 10 0 6 5 10 10
10 6 0 10 -4 10 -10z m-3942 -245 l32 -45 -35 0 c-26 0 -39 6 -51 25 l-16 24
-22 -25 c-15 -19 -29 -25 -50 -22 l-28 3 31 43 c27 37 36 42 69 42 34 0 42 -5
70 -45z m-4808 -260 l0 -205 -45 0 -45 0 0 205 0 205 45 0 45 0 0 -205z m239
159 c-38 -38 -51 -45 -77 -42 l-31 3 35 43 c31 37 41 42 77 42 l42 0 -46 -46z
m2949 34 c7 -7 12 -21 12 -33 0 -28 -19 -45 -50 -45 -31 0 -50 17 -50 45 0 28
19 45 50 45 14 0 31 -5 38 -12z m1162 -193 l0 -205 -45 0 -45 0 0 205 0 205
45 0 45 0 0 -205z m1710 0 l0 -205 -50 0 -50 0 0 205 0 205 50 0 50 0 0 -205z
m-6323 184 c154 -58 161 -304 11 -380 -62 -32 -154 -24 -204 17 -21 17 -46 47
-57 67 -35 68 -20 194 31 251 42 47 153 70 219 45z m8223 2 c0 -14 -18 -23
-30 -16 -6 4 -8 11 -5 16 8 12 35 12 35 0z m-5204 -130 c24 -68 45 -125 47
-127 2 -2 23 55 48 126 l44 130 68 0 67 0 0 -195 0 -195 -50 0 -50 0 -1 128 0
127 -46 -128 -46 -128 -40 3 -40 3 -46 130 -46 130 -3 -132 -3 -133 -44 0 -45
0 0 195 0 196 71 -3 71 -3 44 -124z m2101 -51 c34 -96 65 -183 69 -193 5 -16
0 -18 -47 -15 -50 3 -53 5 -64 38 l-12 35 -69 3 -70 3 -10 -38 c-9 -37 -10
-38 -61 -41 -29 -2 -53 -1 -53 1 0 4 76 212 116 320 l26 68 56 -3 56 -3 63
-175z m4463 155 c0 -16 -27 -32 -37 -22 -3 4 -3 13 0 22 8 20 37 20 37 0z
m750 5 c0 -5 -4 -10 -10 -10 -5 0 -10 5 -10 10 0 6 5 10 10 10 6 0 10 -4 10
-10z m-390 -19 c0 -6 -4 -13 -10 -16 -5 -3 -10 1 -10 9 0 9 5 16 10 16 6 0 10
-4 10 -9z m-9408 -90 l33 -29 3 -116 4 -116 -46 0 c-26 0 -46 5 -46 11 0 5
-10 3 -22 -5 -35 -25 -94 -20 -123 9 -32 31 -34 96 -6 124 22 22 80 41 124 41
21 0 28 4 25 16 -5 29 -33 39 -75 28 -21 -6 -45 -13 -53 -15 -18 -5 -26 37
-10 56 14 17 38 22 107 24 45 1 57 -3 85 -28z m597 16 c37 -18 60 -57 67 -109
l7 -48 -92 0 c-82 0 -91 -2 -91 -19 0 -39 56 -57 123 -38 25 7 27 5 27 -23 0
-37 -27 -50 -101 -50 -97 0 -143 47 -144 145 0 69 18 105 68 135 36 23 100 26
136 7z m775 7 c10 -4 16 -18 16 -40 0 -32 -1 -33 -30 -22 -36 12 -80 3 -80
-16 0 -8 19 -21 43 -31 58 -23 87 -52 87 -87 0 -64 -48 -98 -139 -98 -70 0
-81 6 -81 47 0 29 3 34 18 28 31 -12 87 -16 101 -6 22 15 6 36 -39 51 -91 30
-109 123 -32 164 27 15 107 21 136 10z m305 -12 c93 -50 94 -198 1 -260 -29
-20 -45 -23 -95 -20 -69 4 -105 25 -129 76 -34 69 -10 157 53 199 43 29 121
31 170 5z m1475 11 c4 -5 35 -6 68 -4 l60 3 -4 -154 c-4 -168 -13 -199 -70
-241 -30 -22 -115 -34 -173 -23 -33 7 -35 9 -35 48 0 35 2 39 18 32 9 -4 40
-9 68 -12 46 -3 53 -1 73 24 11 14 21 35 21 46 0 18 -2 18 -22 4 -12 -9 -41
-16 -63 -16 -75 0 -115 51 -115 145 0 96 48 155 125 155 23 0 45 -3 49 -7z
m731 -15 c32 -25 55 -74 55 -118 l0 -30 -90 0 c-95 0 -105 -6 -76 -45 14 -19
61 -25 116 -15 21 4 25 1 28 -22 4 -37 -32 -51 -116 -46 -54 3 -67 8 -93 34
-67 68 -55 196 24 244 44 28 116 27 152 -2z m1040 16 c33 -13 45 -59 45 -174
l0 -110 -45 0 -45 0 0 98 c0 104 -7 122 -47 122 -33 0 -43 -29 -43 -129 l0
-91 -45 0 -45 0 0 140 0 140 45 0 c25 0 45 -5 45 -10 0 -6 12 -4 28 4 28 16
79 20 107 10z m338 -3 l59 0 -4 -160 c-3 -143 -5 -163 -24 -187 -39 -52 -70
-68 -143 -72 -87 -5 -113 7 -109 51 2 23 7 31 18 28 8 -2 38 -6 66 -9 43 -3
55 -1 73 17 11 11 21 33 21 47 0 24 -1 24 -22 10 -28 -20 -80 -20 -117 -1 -57
29 -77 124 -44 206 22 56 64 81 123 75 25 -3 71 -5 103 -5z m317 -6 c35 -18
55 -53 64 -112 l6 -43 -95 0 c-52 0 -95 -4 -95 -9 0 -5 8 -19 18 -32 20 -24
64 -30 115 -16 25 7 27 5 27 -23 0 -37 -27 -50 -103 -50 -91 0 -147 55 -147
144 0 63 37 127 85 146 32 14 94 11 125 -5z m490 -3 c66 -35 92 -141 50 -210
-62 -101 -220 -96 -272 8 -35 70 -13 154 51 197 43 29 121 31 171 5z m-5270
-83 c0 -100 10 -129 43 -129 40 0 47 18 47 122 l0 98 50 0 50 0 0 -140 0 -140
-50 0 c-28 0 -50 5 -50 11 0 5 -10 3 -22 -5 -38 -27 -95 -20 -129 13 -29 29
-29 31 -29 145 l0 116 45 0 45 0 0 -91z m1090 -7 c0 -104 7 -122 47 -122 33 0
43 29 43 129 l0 91 50 0 50 0 0 -140 0 -140 -50 0 c-30 0 -50 4 -50 11 0 7
-10 5 -25 -5 -47 -31 -123 -15 -144 31 -6 13 -11 73 -11 133 l0 110 45 0 45 0
0 -98z m1040 -42 l0 -140 -50 0 -50 0 0 140 0 140 50 0 50 0 0 -140z m500 42
c0 -104 7 -122 47 -122 33 0 43 29 43 129 l0 91 50 0 50 0 0 -140 0 -140 -50
0 c-30 0 -50 4 -50 11 0 7 -10 5 -25 -5 -47 -31 -123 -15 -144 31 -6 13 -11
73 -11 133 l0 110 45 0 45 0 0 -98z m-3261 -179 c-10 -38 -19 -69 -19 -70 0
-2 -16 -3 -35 -3 -40 0 -40 1 -24 83 l12 57 43 0 43 0 -20 -67z m6651 -24 c0
-5 -7 -9 -15 -9 -15 0 -20 12 -9 23 8 8 24 -1 24 -14z m3964 -250 c-3 -5 -10
-7 -15 -3 -5 3 -7 10 -3 15 3 5 10 7 15 3 5 -3 7 -10 3 -15z m-3594 -189 c0
-5 -4 -10 -10 -10 -5 0 -10 5 -10 10 0 6 5 10 10 10 6 0 10 -4 10 -10z m-6920
-130 c0 -5 -7 -10 -15 -10 -8 0 -15 5 -15 10 0 6 7 10 15 10 8 0 15 -4 15 -10z
m540 -64 l0 -74 -41 2 c-51 1 -68 22 -53 63 7 22 17 29 42 31 26 3 32 7 32 28
0 13 5 24 10 24 6 0 10 -31 10 -74z m1070 -1 c0 -43 -4 -75 -10 -75 -6 0 -10
32 -10 75 0 43 4 75 10 75 6 0 10 -32 10 -75z m290 65 c0 -5 -7 -10 -15 -10
-8 0 -15 5 -15 10 0 6 7 10 15 10 8 0 15 -4 15 -10z m560 -65 c0 -43 -4 -75
-10 -75 -6 0 -10 32 -10 75 0 43 4 75 10 75 6 0 10 -32 10 -75z m620 65 c0 -5
-4 -10 -10 -10 -5 0 -10 5 -10 10 0 6 5 10 10 10 6 0 10 -4 10 -10z m540 -65
l0 -75 -33 0 c-40 0 -57 15 -57 50 0 32 17 50 47 50 18 0 23 6 23 25 0 14 5
25 10 25 6 0 10 -32 10 -75z m-4620 55 c0 -5 -13 -10 -30 -10 -39 0 -39 -20 0
-42 37 -21 47 -43 29 -64 -14 -17 -70 -16 -76 2 -2 6 8 9 26 6 43 -6 47 15 7
39 -37 21 -45 46 -24 67 14 14 68 16 68 2z m3775 1 c-3 -5 -19 -9 -35 -9 -38
1 -28 18 11 18 17 0 28 -4 24 -9z m-1655 -16 c0 -8 7 -15 15 -15 8 0 15 -4 15
-10 0 -5 -7 -10 -15 -10 -10 0 -15 -10 -15 -30 0 -20 5 -30 15 -30 8 0 15 -5
15 -11 0 -6 -10 -9 -22 -7 -19 2 -24 11 -29 48 -6 49 -2 80 12 80 5 0 9 -7 9
-15z m-2004 -40 c15 -23 15 -27 0 -50 -28 -42 -96 -24 -96 25 0 49 68 67 96
25z m54 -15 c0 -33 3 -40 20 -40 17 0 20 7 20 40 0 22 5 40 10 40 6 0 10 -23
10 -51 l0 -50 -37 3 c-38 3 -38 3 -41 51 -2 28 1 47 7 47 6 0 11 -18 11 -40z
m162 3 c2 -30 7 -38 23 -38 16 0 21 8 23 38 5 54 22 45 22 -11 0 -48 0 -49
-32 -50 -44 -1 -58 13 -58 59 0 50 18 51 22 2z m236 -15 c2 -29 -1 -48 -7 -48
-6 0 -11 18 -11 41 0 33 -3 40 -17 37 -13 -2 -19 -14 -21 -41 -4 -50 -22 -48
-22 3 0 33 -3 40 -20 40 -17 0 -20 -7 -20 -40 0 -22 -4 -40 -10 -40 -5 0 -10
23 -10 50 l0 50 68 -2 67 -3 3 -47z m160 0 l3 -46 -38 1 c-31 2 -39 6 -41 25
-3 18 2 23 27 28 17 4 31 11 31 16 0 6 -11 8 -25 6 -17 -4 -25 -1 -25 9 0 10
10 13 33 11 31 -3 32 -5 35 -50z m114 39 c12 -18 10 -61 -4 -75 -7 -7 -22 -12
-35 -12 -18 0 -23 -6 -23 -25 0 -14 -4 -25 -10 -25 -6 0 -10 31 -10 73 l0 74
37 1 c20 1 41 -4 45 -11z m106 -39 l3 -46 -38 1 c-31 2 -39 6 -41 25 -3 18 2
23 27 28 17 4 31 11 31 16 0 6 -11 8 -25 6 -17 -4 -25 -1 -25 9 0 10 10 13 33
11 31 -3 32 -5 35 -50z m42 2 c0 -27 -4 -50 -10 -50 -5 0 -10 23 -10 50 0 28
5 50 10 50 6 0 10 -22 10 -50z m54 34 c6 -16 8 -16 24 0 28 24 36 19 17 -10
-15 -23 -15 -27 0 -50 18 -28 0 -34 -21 -6 -12 16 -13 16 -19 0 -4 -10 -14
-18 -21 -18 -12 0 -12 4 1 24 13 19 14 29 6 45 -13 24 -14 31 -2 31 5 0 12 -7
15 -16z m154 4 c7 -7 12 -24 12 -38 0 -34 -17 -50 -52 -50 -37 0 -57 38 -40
75 13 27 58 35 80 13z m120 -40 c2 -29 -1 -48 -7 -48 -6 0 -11 18 -11 41 0 36
-2 40 -22 37 -19 -2 -24 -10 -26 -40 -5 -55 -22 -46 -22 11 l0 49 43 -2 42 -1
3 -47z m100 0 l3 -48 -36 0 c-23 0 -38 6 -41 15 -8 20 13 45 37 45 11 0 19 5
19 11 0 7 -10 9 -25 7 -14 -3 -25 -2 -25 2 0 14 15 21 40 18 22 -3 25 -8 28
-50z m230 40 c7 -7 12 -24 12 -38 0 -34 -17 -50 -52 -50 -37 0 -57 38 -40 75
13 27 58 35 80 13z m174 -1 c12 -18 10 -61 -4 -75 -7 -7 -22 -12 -35 -12 -18
0 -23 -6 -23 -25 0 -14 -4 -25 -10 -25 -6 0 -10 31 -10 73 l0 74 37 1 c20 1
41 -4 45 -11z m116 1 c7 -7 12 -24 12 -38 0 -14 -5 -31 -12 -38 -7 -7 -24 -12
-38 -12 -14 0 -31 5 -38 12 -7 7 -12 24 -12 38 0 14 5 31 12 38 7 7 24 12 38
12 14 0 31 -5 38 -12z m73 -4 c-14 -11 -21 -26 -21 -50 0 -19 -4 -34 -10 -34
-5 0 -10 22 -10 48 0 48 1 49 31 50 31 1 31 0 10 -14z m227 4 c7 -7 12 -20 12
-30 0 -14 -8 -18 -35 -18 -19 0 -35 -4 -35 -10 0 -5 14 -10 30 -10 17 0 30 -4
30 -10 0 -14 -54 -12 -68 2 -7 7 -12 24 -12 38 0 31 17 50 45 50 12 0 26 -5
33 -12z m102 2 c0 -5 -11 -10 -24 -10 -13 0 -26 -7 -30 -15 -9 -25 4 -45 30
-45 13 0 24 -5 24 -11 0 -6 -14 -9 -32 -7 -43 4 -61 47 -33 78 19 21 65 28 65
10z m108 -42 c2 -29 -1 -48 -7 -48 -6 0 -11 18 -11 41 0 36 -2 40 -22 37 -19
-2 -24 -10 -26 -40 -5 -55 -22 -46 -22 11 l0 49 43 -2 42 -1 3 -47z m110 40
c7 -7 12 -24 12 -38 0 -14 -5 -31 -12 -38 -7 -7 -24 -12 -38 -12 -14 0 -31 5
-38 12 -7 7 -12 24 -12 38 0 14 5 31 12 38 7 7 24 12 38 12 14 0 31 -5 38 -12z
m168 -13 c15 -23 15 -27 0 -50 -28 -42 -96 -24 -96 25 0 49 68 67 96 25z m124
-34 c0 -41 -5 -65 -16 -75 -17 -18 -74 -22 -74 -6 0 6 14 10 30 10 17 0 30 2
30 4 0 2 3 11 6 19 4 11 -1 13 -20 10 -47 -9 -70 31 -46 78 8 14 21 19 50 19
l40 0 0 -59z m40 9 c0 -27 -4 -50 -10 -50 -5 0 -10 23 -10 50 0 28 5 50 10 50
6 0 10 -22 10 -50z m108 -2 l3 -46 -38 1 c-31 2 -39 6 -41 25 -3 18 2 23 27
28 17 4 31 11 31 16 0 6 -11 8 -25 6 -17 -4 -25 -1 -25 9 0 10 10 13 33 11 31
-3 32 -5 35 -50z m160 20 c3 -25 0 -28 -27 -28 -17 0 -31 -4 -31 -10 0 -5 14
-10 31 -10 17 0 28 -4 24 -10 -11 -18 -64 -11 -75 9 -22 43 3 84 49 79 20 -2
27 -9 29 -30z m142 23 c0 -5 -12 -11 -27 -13 l-28 -4 28 -14 c40 -20 34 -54
-10 -58 -19 -2 -33 1 -33 7 0 6 11 11 25 11 14 0 25 5 25 10 0 6 -4 10 -8 10
-5 0 -17 6 -27 14 -16 12 -17 16 -6 30 14 17 61 22 61 7z m108 -3 c7 -7 12
-24 12 -38 0 -14 -5 -31 -12 -38 -7 -7 -24 -12 -38 -12 -14 0 -31 5 -38 12 -7
7 -12 24 -12 38 0 14 5 31 12 38 7 7 24 12 38 12 14 0 31 -5 38 -12z m102 -28
c0 -33 3 -40 20 -40 17 0 20 7 20 40 0 22 5 40 10 40 6 0 10 -23 10 -51 l0
-50 -37 3 c-38 3 -38 3 -41 51 -2 28 1 47 7 47 6 0 11 -18 11 -40z m170 31 c0
-5 -12 -11 -27 -13 -22 -2 -28 -8 -28 -28 0 -20 6 -26 28 -28 30 -4 38 -22 10
-22 -14 0 -15 -2 -4 -9 17 -11 6 -31 -17 -31 -12 0 -14 2 -4 8 9 6 6 14 -13
32 -27 25 -33 68 -13 88 14 14 68 16 68 3z m98 -3 c7 -7 12 -24 12 -38 0 -34
-17 -50 -52 -50 -37 0 -57 38 -40 75 13 27 58 35 80 13z m112 -8 c15 -27 5
-40 -31 -40 -16 0 -29 -4 -29 -10 0 -5 14 -10 30 -10 17 0 30 -4 30 -10 0 -14
-54 -12 -68 2 -7 7 -12 24 -12 38 0 14 5 31 12 38 19 19 56 14 68 -8z m90 10
c0 -5 -12 -10 -27 -10 l-28 0 29 -23 c37 -30 30 -57 -14 -57 -16 0 -30 5 -30
10 0 6 11 10 25 10 14 0 25 5 25 10 0 6 -6 10 -14 10 -7 0 -19 7 -26 15 -10
12 -10 18 0 30 14 17 60 21 60 5z m100 -40 c0 -27 -4 -50 -10 -50 -5 0 -10 23
-10 50 0 28 5 50 10 50 6 0 10 -22 10 -50z m108 -2 c2 -29 -1 -48 -7 -48 -6 0
-11 18 -11 40 0 33 -4 40 -19 40 -21 0 -31 -19 -31 -56 0 -13 -4 -24 -10 -24
-5 0 -10 22 -10 49 l0 49 43 -2 42 -1 3 -47z m118 27 c15 -23 15 -27 0 -50
-28 -42 -96 -24 -96 25 0 49 68 67 96 25z m49 -5 c9 -41 22 -46 30 -10 6 29
21 47 31 37 7 -7 -34 -97 -44 -97 -5 0 -19 23 -30 50 -16 39 -18 50 -7 50 7 0
16 -13 20 -30z m149 14 c3 -9 6 -30 6 -48 0 -31 -2 -33 -40 -34 -36 -2 -40 0
-40 23 0 20 6 27 30 32 35 6 41 25 8 23 -34 -3 -40 -1 -33 10 10 16 62 12 69
-6z m238 -9 c17 -37 -3 -75 -40 -75 -35 0 -52 16 -52 50 0 34 17 50 52 50 21
0 32 -7 40 -25z m71 15 c-19 -8 -23 -17 -23 -50 0 -22 -4 -40 -10 -40 -5 0
-10 23 -10 50 0 50 0 50 33 49 29 0 30 -1 10 -9z m95 -42 l3 -48 -36 0 c-23 0
-38 6 -41 15 -8 20 13 45 37 45 11 0 19 5 19 11 0 7 -10 9 -25 7 -14 -3 -25
-2 -25 2 0 14 15 21 40 18 22 -3 25 -8 28 -50z m92 43 c0 -5 -12 -11 -27 -13
l-28 -4 28 -14 c40 -20 34 -54 -10 -58 -19 -2 -33 1 -33 7 0 6 11 11 25 11 14
0 25 5 25 10 0 6 -4 10 -8 10 -5 0 -17 6 -27 14 -16 12 -17 16 -6 30 14 17 61
22 61 7z m40 -81 c0 -5 -4 -10 -10 -10 -5 0 -10 5 -10 10 0 6 5 10 10 10 6 0
10 -4 10 -10z m1517 -132 c-3 -8 -6 -5 -6 6 -1 11 2 17 5 13 3 -3 4 -12 1 -19z
m-5657 -72 l0 -74 -41 2 c-51 1 -68 22 -53 63 7 22 17 29 42 31 26 3 32 7 32
28 0 13 5 24 10 24 6 0 10 -31 10 -74z m1820 45 c0 -25 3 -28 25 -23 20 3 27
-1 35 -23 15 -39 13 -75 -5 -75 -11 0 -15 11 -15 40 0 33 -3 40 -20 40 -17 0
-20 -7 -20 -40 0 -22 -4 -40 -10 -40 -6 0 -10 32 -10 75 0 43 4 75 10 75 6 0
10 -13 10 -29z m1310 19 c0 -5 -4 -10 -10 -10 -5 0 -10 5 -10 10 0 6 5 10 10
10 6 0 10 -4 10 -10z m460 -64 c0 -71 -1 -75 -22 -74 -57 0 -68 7 -68 41 0 39
15 57 47 57 18 0 23 6 23 25 0 14 5 25 10 25 6 0 10 -31 10 -74z m590 -1 c0
-43 -4 -75 -10 -75 -6 0 -10 32 -10 75 0 43 4 75 10 75 6 0 10 -32 10 -75z
m670 46 c0 -25 3 -28 25 -23 32 6 55 -13 55 -47 0 -37 -17 -51 -62 -51 l-38 0
0 75 c0 43 4 75 10 75 6 0 10 -13 10 -29z m120 -46 c0 -43 -4 -75 -10 -75 -6
0 -10 32 -10 75 0 43 4 75 10 75 6 0 10 -32 10 -75z m5310 65 c0 -5 -4 -10
-10 -10 -5 0 -10 5 -10 10 0 6 5 10 10 10 6 0 10 -4 10 -10z m-11160 -10 c0
-5 -13 -10 -28 -10 -35 0 -52 -16 -52 -50 0 -34 17 -50 52 -50 15 0 28 -4 28
-10 0 -16 -62 -11 -82 7 -27 24 -24 87 4 107 25 18 78 22 78 6z m570 -5 c19
-22 8 -49 -27 -65 -22 -10 -33 -22 -33 -37 0 -13 -4 -23 -10 -23 -6 0 -10 30
-10 70 l0 70 34 0 c18 0 39 -7 46 -15z m715 -36 l23 -51 26 51 c15 28 31 51
36 51 6 0 10 -31 10 -70 0 -40 -4 -70 -10 -70 -5 0 -10 21 -11 48 l-1 47 -20
-47 c-11 -27 -24 -48 -27 -48 -4 0 -17 19 -28 43 l-22 42 0 -42 c-1 -31 -5
-43 -16 -43 -12 0 -15 14 -15 70 0 88 20 95 55 19z m-139 11 c8 0 14 -4 14
-10 0 -5 -7 -10 -15 -10 -9 0 -15 -9 -15 -25 0 -14 7 -28 15 -31 22 -9 18 -24
-5 -24 -19 0 -21 4 -35 74 -2 11 1 29 8 40 10 19 12 19 15 4 2 -10 10 -18 18
-18z m1274 16 c0 -8 6 -17 13 -20 10 -5 10 -7 0 -12 -7 -3 -13 -18 -13 -34 0
-16 6 -30 13 -33 6 -2 9 -8 5 -12 -16 -17 -38 5 -38 39 0 19 -6 37 -12 40 -10
5 -10 7 0 12 6 3 12 12 12 20 0 8 5 14 10 14 6 0 10 -6 10 -14z m-2312 -28 c7
-7 12 -24 12 -38 0 -34 -17 -50 -52 -50 -37 0 -57 38 -40 75 13 27 58 35 80
13z m174 -2 c11 -17 9 -86 -2 -86 -5 0 -10 18 -10 40 0 33 -3 40 -20 40 -17 0
-20 -7 -20 -40 0 -22 -4 -40 -10 -40 -5 0 -10 16 -10 35 0 23 -6 38 -16 42
-20 7 -34 -13 -34 -49 0 -16 -4 -28 -10 -28 -5 0 -10 22 -10 48 l0 49 68 0
c40 1 70 -4 74 -11z m116 2 c7 -7 12 -24 12 -38 0 -34 -17 -50 -52 -50 -37 0
-57 38 -40 75 13 27 58 35 80 13z m245 2 c-19 -8 -23 -17 -23 -50 0 -22 -4
-40 -10 -40 -5 0 -10 23 -10 50 0 50 0 50 33 49 29 0 30 -1 10 -9z m113 -15
c15 -23 15 -27 0 -50 -28 -42 -96 -24 -96 25 0 49 68 67 96 25z m166 -12 c2
-30 7 -38 23 -38 16 0 21 8 23 38 5 54 22 45 22 -11 0 -48 0 -49 -32 -50 -44
-1 -58 13 -58 59 0 50 18 51 22 2z m168 28 c0 -5 -12 -11 -27 -13 -22 -2 -28
-8 -28 -28 0 -20 6 -26 28 -28 36 -4 35 -22 -3 -22 -45 0 -66 52 -34 84 17 17
64 22 64 7z m394 -7 c3 -9 6 -30 6 -48 0 -31 -2 -33 -40 -34 -36 -2 -40 0 -40
23 0 20 6 27 30 32 35 6 41 25 8 23 -34 -3 -40 -1 -33 10 10 16 62 12 69 -6z
m114 -36 c2 -29 -1 -48 -7 -48 -6 0 -11 18 -11 40 0 33 -4 40 -19 40 -21 0
-31 -19 -31 -56 0 -13 -4 -24 -10 -24 -5 0 -10 22 -10 49 l0 49 43 -2 42 -1 3
-47z m100 0 l3 -48 -36 0 c-23 0 -38 6 -41 15 -8 20 13 45 37 45 11 0 19 5 19
11 0 7 -10 9 -25 7 -14 -3 -25 -2 -25 2 0 14 15 21 40 18 22 -3 25 -8 28 -50z
m122 -5 c0 -73 -12 -93 -55 -93 -44 0 -46 18 -3 22 20 2 34 9 36 19 2 12 -4
15 -27 11 -25 -3 -32 0 -42 22 -9 20 -9 32 -1 51 10 21 18 25 52 23 l40 -1 0
-54z m98 45 c7 -7 12 -20 12 -30 0 -14 -8 -18 -36 -18 -21 0 -33 -4 -29 -10 3
-5 20 -10 36 -10 18 0 28 -4 24 -10 -3 -5 -20 -10 -36 -10 -38 0 -58 37 -41
75 13 27 49 34 70 13z m73 -4 c-14 -11 -21 -26 -21 -50 0 -19 -4 -34 -10 -34
-5 0 -10 22 -10 48 0 48 1 49 31 50 31 1 31 0 10 -14z m207 -16 c3 -25 0 -28
-27 -28 -17 0 -31 -4 -31 -10 0 -5 14 -10 31 -10 17 0 28 -4 24 -10 -11 -18
-64 -11 -75 9 -22 43 3 84 49 79 20 -2 27 -9 29 -30z m44 -5 c2 -30 7 -38 23
-38 16 0 21 8 23 38 5 54 22 45 22 -11 0 -48 0 -49 -32 -50 -44 -1 -58 13 -58
59 0 50 18 51 22 2z m296 5 c3 -25 0 -28 -27 -28 -17 0 -31 -4 -31 -10 0 -5
14 -10 31 -10 17 0 28 -4 24 -10 -11 -18 -64 -11 -75 9 -22 43 3 84 49 79 20
-2 27 -9 29 -30z m110 -20 c2 -29 -1 -48 -7 -48 -6 0 -11 18 -11 40 0 33 -4
40 -19 40 -21 0 -31 -19 -31 -56 0 -13 -4 -24 -10 -24 -5 0 -10 22 -10 49 l0
49 43 -2 42 -1 3 -47z m228 27 c15 -23 15 -27 0 -50 -28 -42 -96 -24 -96 25 0
49 68 67 96 25z m176 0 c17 -37 -3 -75 -40 -75 -35 0 -52 16 -52 50 0 34 17
50 52 50 21 0 32 -7 40 -25z m158 16 c0 -5 -12 -11 -27 -13 -22 -2 -28 -8 -28
-28 0 -20 6 -26 28 -28 36 -4 35 -22 -1 -22 -35 0 -52 16 -52 50 0 14 5 31 12
38 14 14 68 16 68 3z m98 -3 c7 -7 12 -24 12 -38 0 -34 -17 -50 -52 -50 -37 0
-57 38 -40 75 13 27 58 35 80 13z m174 -2 c11 -17 9 -86 -2 -86 -5 0 -10 18
-10 40 0 33 -3 40 -20 40 -17 0 -20 -7 -20 -40 0 -22 -4 -40 -10 -40 -5 0 -10
16 -10 35 0 23 -6 38 -16 42 -20 7 -34 -13 -34 -49 0 -16 -4 -28 -10 -28 -5 0
-10 22 -10 48 l0 49 68 0 c40 1 70 -4 74 -11z m120 1 c12 -18 10 -61 -4 -75
-7 -7 -22 -12 -35 -12 -18 0 -23 -6 -23 -25 0 -14 -4 -25 -10 -25 -6 0 -10 31
-10 73 l0 74 37 1 c20 1 41 -4 45 -11z m68 -7 c-11 -11 -20 -33 -20 -50 0 -16
-4 -30 -10 -30 -5 0 -10 23 -10 50 0 49 1 50 30 50 l30 0 -20 -20z m118 8 c7
-7 12 -24 12 -38 0 -14 -5 -31 -12 -38 -7 -7 -24 -12 -38 -12 -14 0 -31 5 -38
12 -7 7 -12 24 -12 38 0 14 5 31 12 38 7 7 24 12 38 12 14 0 31 -5 38 -12z
m170 -40 c2 -29 -1 -48 -7 -48 -6 0 -11 18 -11 41 0 33 -3 40 -17 37 -13 -2
-19 -14 -21 -41 -4 -50 -22 -47 -22 4 0 33 -3 40 -17 37 -13 -2 -19 -14 -21
-41 -5 -54 -22 -45 -22 12 l0 48 68 -1 67 -1 3 -47z m52 2 c0 -27 -4 -50 -10
-50 -5 0 -10 23 -10 50 0 28 5 50 10 50 6 0 10 -22 10 -50z m90 40 c0 -5 -9
-10 -20 -10 -11 0 -20 -4 -20 -10 0 -5 4 -10 8 -10 5 0 17 -6 27 -14 16 -12
17 -16 6 -30 -14 -17 -61 -22 -61 -7 0 5 12 11 28 13 l27 4 -27 14 c-26 12
-36 38 -21 53 10 11 53 8 53 -3z m90 0 c0 -5 -12 -10 -27 -10 l-28 0 29 -23
c37 -30 30 -57 -14 -57 -16 0 -30 5 -30 10 0 6 11 10 25 10 14 0 25 5 25 10 0
6 -6 10 -14 10 -7 0 -19 7 -26 15 -10 12 -10 18 0 30 14 17 60 21 60 5z m112
-15 c17 -37 -3 -75 -40 -75 -35 0 -52 16 -52 50 0 34 17 50 52 50 21 0 32 -7
40 -25z m276 -7 c3 -25 0 -28 -27 -28 -17 0 -31 -4 -31 -10 0 -5 14 -10 31
-10 17 0 28 -4 24 -10 -11 -18 -64 -11 -75 9 -22 43 3 84 49 79 20 -2 27 -9
29 -30z m125 22 c-19 -8 -23 -17 -23 -50 0 -22 -4 -40 -10 -40 -5 0 -10 23
-10 50 0 50 0 50 33 49 29 0 30 -1 10 -9z m105 -22 c3 -25 0 -28 -27 -28 -17
0 -31 -4 -31 -10 0 -5 14 -10 31 -10 17 0 28 -4 24 -10 -11 -18 -64 -11 -75 9
-22 43 3 84 49 79 20 -2 27 -9 29 -30z m82 22 c0 -5 -9 -10 -20 -10 -27 0 -25
-13 3 -25 12 -6 22 -19 22 -30 0 -15 -8 -21 -32 -23 -40 -4 -44 15 -5 20 l27
4 -27 14 c-26 12 -36 38 -21 53 10 11 53 8 53 -3z m116 -15 c15 -23 15 -27 0
-50 -28 -42 -96 -24 -96 25 0 49 68 67 96 25z m100 -16 l12 -34 11 28 c6 16
11 33 11 38 0 5 7 9 14 9 12 0 11 -9 -6 -50 -12 -28 -26 -49 -32 -47 -6 2 -19
25 -29 51 -12 32 -13 46 -5 44 6 -2 17 -20 24 -39z m152 9 c3 -25 0 -28 -27
-28 -17 0 -31 -4 -31 -10 0 -5 14 -10 31 -10 17 0 28 -4 24 -10 -11 -18 -64
-11 -75 9 -22 43 3 84 49 79 20 -2 27 -9 29 -30z m62 12 c-11 -11 -20 -33 -20
-50 0 -16 -4 -30 -10 -30 -5 0 -10 23 -10 50 0 49 1 50 30 50 l30 0 -20 -20z
m181 -6 c14 -37 -13 -78 -47 -71 -21 4 -24 0 -24 -24 0 -16 -4 -29 -10 -29 -6
0 -10 31 -10 73 l0 74 40 1 c35 2 42 -2 51 -24z m67 15 c-12 -7 -18 -22 -18
-49 0 -22 -4 -40 -10 -40 -5 0 -10 23 -10 50 0 48 1 50 28 50 23 -1 24 -2 10
-11z m110 -1 c7 -7 12 -24 12 -38 0 -34 -17 -50 -52 -50 -37 0 -57 38 -40 75
13 27 58 35 80 13z m280 -20 c3 -25 0 -28 -27 -28 -17 0 -31 -4 -31 -10 0 -5
14 -10 31 -10 17 0 28 -4 24 -10 -11 -18 -64 -11 -75 9 -22 43 3 84 49 79 20
-2 27 -9 29 -30z m164 18 c11 -17 9 -86 -2 -86 -5 0 -10 18 -10 40 0 33 -3 40
-20 40 -17 0 -20 -7 -20 -40 0 -22 -4 -40 -10 -40 -5 0 -10 16 -10 35 0 23 -6
38 -16 42 -20 7 -34 -13 -34 -49 0 -16 -4 -28 -10 -28 -5 0 -10 22 -10 48 l0
49 68 0 c40 1 70 -4 74 -11z m106 -38 l3 -48 -36 0 c-23 0 -38 6 -41 15 -8 20
13 45 37 45 11 0 19 5 19 11 0 7 -10 9 -25 7 -14 -3 -25 -2 -25 2 0 14 15 21
40 18 22 -3 25 -8 28 -50z m92 43 c0 -5 -12 -11 -27 -13 l-28 -4 28 -14 c40
-20 34 -54 -10 -58 -19 -2 -33 1 -33 7 0 6 11 11 25 11 14 0 25 5 25 10 0 6
-4 10 -8 10 -5 0 -17 6 -27 14 -16 12 -17 16 -6 30 14 17 61 22 61 7z m1820
-61 c0 -5 -4 -10 -10 -10 -5 0 -10 5 -10 10 0 6 5 10 10 10 6 0 10 -4 10 -10z
m-6106 -32 c-8 -27 -12 -33 -19 -27 -7 8 7 49 17 49 5 0 6 -10 2 -22z m-1614
-193 c0 -43 -4 -75 -10 -75 -6 0 -10 32 -10 75 0 43 4 75 10 75 6 0 10 -32 10
-75z m1590 0 c0 -43 -4 -75 -10 -75 -6 0 -10 32 -10 75 0 43 4 75 10 75 6 0
10 -32 10 -75z m290 1 c0 -71 -1 -75 -22 -74 -57 0 -68 7 -68 41 0 39 15 57
47 57 18 0 23 6 23 25 0 14 5 25 10 25 6 0 10 -31 10 -74z m910 64 c0 -5 -4
-10 -10 -10 -5 0 -10 5 -10 10 0 6 5 10 10 10 6 0 10 -4 10 -10z m380 0 c0 -5
-4 -10 -10 -10 -5 0 -10 5 -10 10 0 6 5 10 10 10 6 0 10 -4 10 -10z m1268 -2
c-2 -6 -10 -14 -16 -16 -7 -2 -10 2 -6 12 7 18 28 22 22 4z m172 2 c0 -5 -4
-10 -10 -10 -5 0 -10 5 -10 10 0 6 5 10 10 10 6 0 10 -4 10 -10z m-3940 -25
c0 -8 8 -15 18 -15 16 -1 16 -1 0 -14 -22 -16 -24 -66 -3 -66 8 0 15 -5 15
-11 0 -6 -10 -9 -22 -7 -18 2 -24 11 -26 38 -2 19 -8 41 -14 47 -7 9 -7 13 1
13 6 0 11 7 11 15 0 8 5 15 10 15 6 0 10 -7 10 -15z m980 1 c0 -8 6 -17 13
-20 10 -5 10 -7 0 -12 -7 -3 -13 -18 -13 -34 0 -16 6 -30 13 -33 6 -2 9 -8 5
-12 -16 -17 -38 5 -38 39 0 19 -6 37 -12 40 -10 5 -10 7 0 12 6 3 12 12 12 20
0 8 5 14 10 14 6 0 10 -6 10 -14z m-2090 -25 c0 -5 -12 -11 -27 -13 -22 -2
-29 -9 -31 -30 -3 -25 0 -28 28 -28 18 0 29 -4 25 -10 -9 -14 -48 -13 -63 2
-7 7 -12 24 -12 38 0 14 5 31 12 38 14 14 68 16 68 3z m98 -3 c7 -7 12 -24 12
-38 0 -14 -5 -31 -12 -38 -7 -7 -24 -12 -38 -12 -14 0 -31 5 -38 12 -7 7 -12
24 -12 38 0 14 5 31 12 38 7 7 24 12 38 12 14 0 31 -5 38 -12z m170 0 c14 -12
17 -88 3 -88 -6 0 -11 17 -13 37 -2 27 -8 39 -20 41 -15 3 -18 -4 -18 -37 0
-30 -4 -41 -15 -41 -11 0 -15 11 -15 41 0 33 -3 40 -17 37 -13 -2 -19 -14 -21
-41 -5 -54 -22 -45 -22 12 l0 48 63 0 c34 0 68 -4 75 -9z m119 1 c16 -14 17
-61 1 -77 -7 -7 -25 -12 -40 -12 -23 0 -28 -4 -28 -25 0 -14 -4 -25 -10 -25
-6 0 -10 31 -10 73 l0 74 37 1 c20 1 42 -3 50 -9z m163 -9 c15 -27 5 -40 -31
-40 -16 0 -29 -4 -29 -10 0 -5 14 -10 30 -10 17 0 30 -4 30 -10 0 -14 -54 -12
-68 2 -7 7 -12 24 -12 38 0 14 5 31 12 38 19 19 56 14 68 -8z m44 4 c6 -16 8
-16 24 0 28 24 36 19 17 -10 -15 -23 -15 -27 0 -50 18 -28 0 -34 -21 -6 -12
16 -13 16 -19 0 -4 -10 -14 -18 -21 -18 -12 0 -12 4 1 24 13 19 14 29 6 45
-13 24 -14 31 -2 31 5 0 12 -7 15 -16z m154 4 c7 -7 12 -24 12 -38 0 -34 -17
-50 -52 -50 -37 0 -57 38 -40 75 13 27 58 35 80 13z m92 2 c0 -5 -9 -10 -20
-10 -27 0 -25 -13 3 -25 12 -6 22 -19 22 -30 0 -15 -8 -21 -32 -23 -40 -4 -44
15 -5 20 l27 4 -27 14 c-26 12 -36 38 -21 53 10 11 53 8 53 -3z m158 -2 c7 -7
12 -20 12 -30 0 -14 -8 -18 -35 -18 -19 0 -35 -4 -35 -10 0 -5 14 -10 30 -10
17 0 30 -4 30 -10 0 -14 -54 -12 -68 2 -7 7 -12 24 -12 38 0 31 17 50 45 50
12 0 26 -5 33 -12z m193 -4 c-14 -11 -21 -26 -21 -50 0 -19 -4 -34 -10 -34 -5
0 -10 22 -10 48 0 48 1 49 31 50 31 1 31 0 10 -14z m99 -3 c5 -11 10 -33 10
-50 0 -29 -2 -31 -40 -31 -27 0 -43 5 -46 15 -8 20 13 45 37 45 11 0 19 5 19
11 0 7 -10 9 -25 7 -14 -3 -25 -2 -25 2 0 26 56 27 70 1z m86 -15 c-31 -41
-32 -46 -7 -46 11 0 23 -4 26 -10 4 -6 -12 -10 -41 -10 -46 0 -46 0 -30 23 36
50 38 57 17 57 -11 0 -23 5 -26 10 -4 6 12 10 41 10 l46 0 -26 -34z m114 14
c15 -27 5 -40 -31 -40 -16 0 -29 -4 -29 -10 0 -5 14 -10 30 -10 17 0 30 -4 30
-10 0 -14 -54 -12 -68 2 -7 7 -12 24 -12 38 0 14 5 31 12 38 19 19 56 14 68
-8z m68 9 c-12 -7 -18 -22 -18 -49 0 -22 -4 -40 -10 -40 -5 0 -10 23 -10 50 0
48 1 50 28 50 23 -1 24 -2 10 -11z m123 -5 c-14 -11 -21 -26 -21 -50 0 -19 -4
-34 -10 -34 -5 0 -10 22 -10 48 0 48 1 49 31 50 31 1 31 0 10 -14z m109 -4
c15 -27 5 -40 -31 -40 -16 0 -29 -4 -29 -10 0 -5 14 -10 30 -10 17 0 30 -4 30
-10 0 -14 -54 -12 -68 2 -7 7 -12 24 -12 38 0 14 5 31 12 38 19 19 56 14 68
-8z m90 10 c0 -5 -12 -10 -27 -10 l-28 0 29 -23 c37 -30 30 -57 -14 -57 -16 0
-30 5 -30 10 0 6 11 10 25 10 14 0 25 5 25 10 0 6 -6 10 -14 10 -7 0 -19 7
-26 15 -10 12 -10 18 0 30 14 17 60 21 60 5z m42 -27 c2 -30 7 -38 23 -38 16
0 21 8 23 38 5 54 22 45 22 -11 l0 -49 -37 -1 c-20 -1 -41 4 -45 11 -11 17
-10 87 1 87 6 0 11 -17 13 -37z m278 18 c5 -11 10 -33 10 -50 0 -29 -2 -31
-40 -31 -27 0 -43 5 -46 15 -8 20 13 45 37 45 11 0 19 5 19 11 0 7 -10 9 -25
7 -14 -3 -25 -2 -25 2 0 26 56 27 70 1z m236 -6 c15 -23 15 -27 0 -50 -28 -42
-96 -24 -96 25 0 49 68 67 96 25z m94 15 c0 -5 -12 -10 -27 -10 l-28 0 29 -23
c37 -30 30 -57 -14 -57 -16 0 -30 5 -30 10 0 6 11 10 25 10 14 0 25 5 25 10 0
6 -6 10 -14 10 -7 0 -19 7 -26 15 -10 12 -10 18 0 30 14 17 60 21 60 5z m148
-2 c7 -7 12 -20 12 -30 0 -14 -8 -18 -36 -18 -21 0 -33 -4 -29 -10 3 -5 20
-10 36 -10 18 0 28 -4 24 -10 -3 -5 -20 -10 -36 -10 -38 0 -58 37 -41 75 13
27 49 34 70 13z m58 -5 c12 -17 13 -17 19 0 4 9 14 17 21 17 12 0 12 -4 -2
-25 -15 -23 -15 -27 0 -50 19 -29 1 -36 -20 -7 -12 16 -13 16 -19 0 -4 -10
-14 -18 -21 -18 -12 0 -12 4 2 25 15 23 15 27 0 50 -19 29 -1 36 20 8z m144 8
c0 -5 -12 -11 -27 -13 -22 -2 -29 -9 -31 -30 -3 -25 0 -28 28 -28 18 0 29 -4
25 -10 -9 -14 -48 -13 -63 2 -7 7 -12 24 -12 38 0 14 5 31 12 38 14 14 68 16
68 3z m88 -3 c7 -7 12 -20 12 -30 0 -14 -8 -18 -35 -18 -19 0 -35 -4 -35 -10
0 -5 14 -10 30 -10 17 0 30 -4 30 -10 0 -14 -54 -12 -68 2 -7 7 -12 24 -12 38
0 31 17 50 45 50 12 0 26 -5 33 -12z m123 -14 c14 -37 -13 -78 -47 -71 -21 4
-24 0 -24 -24 0 -16 -4 -29 -10 -29 -6 0 -10 31 -10 73 l0 74 40 1 c35 2 42
-2 51 -24z m99 17 c0 -5 -12 -11 -27 -13 -22 -2 -28 -8 -28 -28 0 -20 6 -26
28 -28 36 -4 35 -22 -3 -22 -45 0 -66 52 -34 84 17 17 64 22 64 7z m40 -41 c0
-27 -4 -50 -10 -50 -5 0 -10 23 -10 50 0 28 5 50 10 50 6 0 10 -22 10 -50z
m116 25 c15 -23 15 -27 0 -50 -28 -42 -96 -24 -96 25 0 49 68 67 96 25z m112
-27 c2 -29 -1 -48 -7 -48 -6 0 -11 18 -11 40 0 33 -4 40 -19 40 -21 0 -31 -19
-31 -56 0 -13 -4 -24 -10 -24 -5 0 -10 22 -10 49 l0 49 43 -2 42 -1 3 -47z
m102 33 c5 -11 10 -33 10 -50 0 -29 -2 -31 -40 -31 -27 0 -43 5 -46 15 -8 20
13 45 37 45 11 0 19 5 19 11 0 7 -10 9 -25 7 -14 -3 -25 -2 -25 2 0 26 56 27
70 1z m50 -31 c0 -27 -4 -50 -10 -50 -5 0 -10 23 -10 50 0 28 5 50 10 50 6 0
10 -22 10 -50z m90 41 c0 -5 -12 -11 -27 -13 l-28 -4 28 -14 c40 -20 34 -54
-10 -58 -19 -2 -33 1 -33 7 0 6 11 11 25 11 14 0 25 5 25 10 0 6 -4 10 -8 10
-5 0 -17 6 -27 14 -16 12 -17 16 -6 30 14 17 61 22 61 7z m171 -17 c14 -37
-13 -78 -47 -71 -21 4 -24 0 -24 -24 0 -16 -4 -29 -10 -29 -6 0 -10 31 -10 73
l0 74 40 1 c35 2 42 -2 51 -24z m97 -26 l3 -48 -36 0 c-23 0 -38 6 -41 15 -8
20 13 45 37 45 11 0 19 5 19 11 0 7 -10 9 -25 7 -14 -3 -25 -2 -25 2 0 14 15
21 40 18 22 -3 25 -8 28 -50z m70 41 c-12 -7 -18 -22 -18 -49 0 -22 -4 -40
-10 -40 -5 0 -10 23 -10 50 0 48 1 50 28 50 23 -1 24 -2 10 -11z m100 -41 l3
-48 -36 0 c-23 0 -38 6 -41 15 -8 20 13 45 37 45 11 0 19 5 19 11 0 7 -10 9
-25 7 -14 -3 -25 -2 -25 2 0 14 15 21 40 18 22 -3 25 -8 28 -50z m170 40 c7
-7 12 -24 12 -38 0 -14 -5 -31 -12 -38 -7 -7 -24 -12 -38 -12 -14 0 -31 5 -38
12 -7 7 -12 24 -12 38 0 14 5 31 12 38 7 7 24 12 38 12 14 0 31 -5 38 -12z
m92 2 c0 -5 -9 -10 -20 -10 -11 0 -20 -4 -20 -10 0 -5 4 -10 8 -10 5 0 17 -6
27 -14 16 -12 17 -16 6 -30 -14 -17 -61 -22 -61 -7 0 5 12 11 28 13 l27 4 -27
14 c-26 12 -36 38 -21 53 10 11 53 8 53 -3z m168 -42 c2 -29 -1 -48 -7 -48 -6
0 -11 18 -11 41 0 36 -2 40 -22 37 -19 -2 -24 -10 -26 -40 -5 -55 -22 -46 -22
11 l0 49 43 -2 42 -1 3 -47z m100 40 c7 -7 12 -20 12 -30 0 -14 -8 -18 -35
-18 -19 0 -35 -4 -35 -10 0 -5 14 -10 30 -10 17 0 30 -4 30 -10 0 -14 -54 -12
-68 2 -7 7 -12 24 -12 38 0 31 17 50 45 50 12 0 26 -5 33 -12z m122 -45 c0
-73 -12 -93 -55 -93 -44 0 -46 18 -3 22 20 2 34 9 36 19 2 12 -4 15 -27 11
-25 -3 -32 0 -42 22 -9 20 -9 32 -1 51 10 21 18 25 52 23 l40 -1 0 -54z m108
45 c7 -7 12 -24 12 -38 0 -34 -17 -50 -52 -50 -37 0 -57 38 -40 75 13 27 58
35 80 13z m112 3 c0 -5 -12 -11 -27 -13 -22 -2 -28 -8 -28 -28 0 -20 6 -26 28
-28 36 -4 35 -22 -1 -22 -35 0 -52 16 -52 50 0 14 5 31 12 38 14 14 68 16 68
3z m40 -41 c0 -27 -4 -50 -10 -50 -5 0 -10 23 -10 50 0 28 5 50 10 50 6 0 10
-22 10 -50z m108 38 c7 -7 12 -24 12 -38 0 -14 -5 -31 -12 -38 -7 -7 -24 -12
-38 -12 -14 0 -31 5 -38 12 -7 7 -12 24 -12 38 0 14 5 31 12 38 7 7 24 12 38
12 14 0 31 -5 38 -12z m92 2 c0 -5 -9 -10 -20 -10 -11 0 -20 -4 -20 -10 0 -5
4 -10 8 -10 5 0 17 -6 27 -14 16 -12 17 -16 6 -30 -14 -17 -61 -22 -61 -7 0 5
12 11 28 13 l27 4 -27 14 c-26 12 -36 38 -21 53 10 11 53 8 53 -3z m50 -80 c0
-5 -7 -10 -15 -10 -8 0 -15 5 -15 10 0 6 7 10 15 10 8 0 15 -4 15 -10z m-4510
-140 c0 -5 -7 -10 -15 -10 -8 0 -15 5 -15 10 0 6 7 10 15 10 8 0 15 -4 15 -10z
m470 0 c0 -5 -4 -10 -10 -10 -5 0 -10 5 -10 10 0 6 5 10 10 10 6 0 10 -4 10
-10z m80 -5 c-7 -9 -15 -13 -17 -11 -7 7 7 26 19 26 6 0 6 -6 -2 -15z m1090 5
c0 -5 -4 -10 -10 -10 -5 0 -10 5 -10 10 0 6 5 10 10 10 6 0 10 -4 10 -10z m50
-65 c0 -43 -4 -75 -10 -75 -6 0 -10 32 -10 75 0 43 4 75 10 75 6 0 10 -32 10
-75z m50 46 c0 -25 3 -28 25 -23 20 3 27 -1 35 -23 15 -39 13 -75 -5 -75 -11
0 -15 11 -15 40 0 33 -3 40 -20 40 -17 0 -20 -7 -20 -40 0 -22 -4 -40 -10 -40
-6 0 -10 32 -10 75 0 43 4 75 10 75 6 0 10 -13 10 -29z m540 -45 c0 -71 -1
-75 -22 -74 -57 0 -68 7 -68 41 0 39 15 57 47 57 18 0 23 6 23 25 0 14 5 25
10 25 6 0 10 -31 10 -74z m490 64 c0 -5 -7 -10 -15 -10 -8 0 -15 5 -15 10 0 6
7 10 15 10 8 0 15 -4 15 -10z m890 0 c0 -5 -4 -10 -10 -10 -5 0 -10 5 -10 10
0 6 5 10 10 10 6 0 10 -4 10 -10z m700 -65 c0 -43 -4 -75 -10 -75 -6 0 -10 32
-10 75 0 43 4 75 10 75 6 0 10 -32 10 -75z m-5175 14 l23 -51 26 51 c15 28 31
51 36 51 6 0 10 -31 10 -70 0 -40 -4 -70 -10 -70 -5 0 -10 21 -11 48 l-1 47
-20 -47 c-11 -27 -24 -48 -27 -48 -4 0 -17 19 -28 43 l-22 42 0 -42 c-1 -31
-5 -43 -16 -43 -12 0 -15 14 -15 70 0 88 20 95 55 19z m2725 39 c0 -5 -13 -7
-30 -6 -16 1 -30 6 -30 10 0 5 14 7 30 6 17 -1 30 -6 30 -10z m-1760 -13 c0
-8 7 -15 15 -15 8 0 15 -4 15 -10 0 -5 -7 -10 -15 -10 -10 0 -15 -10 -15 -30
0 -20 5 -30 15 -30 8 0 15 -5 15 -11 0 -6 -10 -9 -22 -7 -19 2 -24 11 -29 48
-6 49 -2 80 12 80 5 0 9 -7 9 -15z m3560 0 c0 -8 8 -15 18 -15 16 -1 16 -1 0
-14 -22 -16 -24 -66 -3 -66 8 0 15 -5 15 -11 0 -6 -10 -9 -22 -7 -18 2 -24 11
-26 38 -2 19 -8 41 -14 47 -7 9 -7 13 1 13 6 0 11 7 11 15 0 8 5 15 10 15 6 0
10 -7 10 -15z m2110 0 c0 -8 -4 -15 -9 -15 -13 0 -22 16 -14 24 11 11 23 6 23
-9z m520 0 c0 -8 -4 -15 -10 -15 -5 0 -10 7 -10 15 0 8 5 15 10 15 6 0 10 -7
10 -15z m-6950 -35 c15 -27 5 -40 -31 -40 -16 0 -29 -4 -29 -10 0 -5 14 -10
30 -10 17 0 30 -4 30 -10 0 -14 -54 -12 -68 2 -7 7 -12 24 -12 38 0 14 5 31
12 38 19 19 56 14 68 -8z m50 -20 c0 -33 3 -40 20 -40 17 0 20 7 20 40 0 22 5
40 10 40 6 0 10 -23 10 -51 l0 -50 -37 3 c-38 3 -38 3 -41 51 -2 28 1 47 7 47
6 0 11 -18 11 -40z m150 31 c0 -5 -12 -11 -27 -13 l-28 -4 28 -14 c40 -20 34
-54 -10 -58 -19 -2 -33 1 -33 7 0 6 11 11 25 11 14 0 25 5 25 10 0 6 -4 10 -8
10 -5 0 -17 6 -27 14 -16 12 -17 16 -6 30 14 17 61 22 61 7z m171 -17 c14 -37
-13 -78 -47 -71 -21 4 -24 0 -24 -24 0 -16 -4 -29 -10 -29 -6 0 -10 31 -10 73
l0 74 40 1 c35 2 42 -2 51 -24z m67 15 c-12 -7 -18 -22 -18 -49 0 -22 -4 -40
-10 -40 -5 0 -10 23 -10 50 0 48 1 50 28 50 23 -1 24 -2 10 -11z m110 -1 c7
-7 12 -24 12 -38 0 -34 -17 -50 -52 -50 -37 0 -57 38 -40 75 13 27 58 35 80
13z m50 -60 c-3 -67 -5 -73 -25 -76 -13 -2 -23 1 -23 7 0 6 7 11 15 11 12 0
15 14 15 65 0 38 4 65 10 65 7 0 10 -27 8 -72z m112 52 c15 -27 5 -40 -31 -40
-16 0 -29 -4 -29 -10 0 -5 14 -10 30 -10 17 0 30 -4 30 -10 0 -14 -54 -12 -68
2 -7 7 -12 24 -12 38 0 14 5 31 12 38 19 19 56 14 68 -8z m178 8 c7 -7 12 -24
12 -38 0 -14 -5 -31 -12 -38 -7 -7 -24 -12 -38 -12 -14 0 -31 5 -38 12 -7 7
-12 24 -12 38 0 14 5 31 12 38 7 7 24 12 38 12 14 0 31 -5 38 -12z m92 2 c0
-5 -9 -10 -20 -10 -11 0 -20 -4 -20 -10 0 -5 4 -10 8 -10 5 0 17 -6 27 -14 16
-12 17 -16 6 -30 -14 -17 -61 -22 -61 -7 0 5 12 11 28 13 l27 4 -27 14 c-26
12 -36 38 -21 53 10 11 53 8 53 -3z m100 -49 c0 -33 -3 -66 -6 -75 -7 -17 -44
-22 -44 -6 0 6 7 10 15 10 12 0 15 14 15 65 0 37 4 65 10 65 6 0 10 -26 10
-59z m100 40 c5 -11 10 -33 10 -50 0 -29 -2 -31 -40 -31 -27 0 -43 5 -46 15
-8 20 13 45 37 45 11 0 19 5 19 11 0 7 -10 9 -25 7 -14 -3 -25 -2 -25 2 0 26
56 27 70 1z m180 -40 c0 -41 -5 -65 -16 -75 -17 -18 -74 -22 -74 -6 0 6 14 10
30 10 17 0 30 2 30 4 0 2 3 11 6 19 4 11 -1 13 -20 10 -47 -9 -70 31 -46 78 8
14 21 19 50 19 l40 0 0 -59z m98 47 c7 -7 12 -20 12 -30 0 -14 -8 -18 -35 -18
-19 0 -35 -4 -35 -10 0 -5 14 -10 30 -10 17 0 30 -4 30 -10 0 -14 -54 -12 -68
2 -7 7 -12 24 -12 38 0 31 17 50 45 50 12 0 26 -5 33 -12z m75 2 c-19 -8 -23
-17 -23 -50 0 -22 -4 -40 -10 -40 -5 0 -10 23 -10 50 0 50 0 50 33 49 29 0 30
-1 10 -9z m97 -9 c5 -11 10 -33 10 -50 0 -29 -2 -31 -40 -31 -27 0 -43 5 -46
15 -8 20 13 45 37 45 11 0 19 5 19 11 0 7 -10 9 -25 7 -14 -3 -25 -2 -25 2 0
26 56 27 70 1z m73 9 c-19 -8 -23 -17 -23 -50 0 -22 -4 -40 -10 -40 -5 0 -10
23 -10 50 0 50 0 50 33 49 29 0 30 -1 10 -9z m97 -9 c5 -11 10 -33 10 -50 0
-29 -2 -31 -40 -31 -27 0 -43 5 -46 15 -8 20 13 45 37 45 11 0 19 5 19 11 0 7
-10 9 -25 7 -14 -3 -25 -2 -25 2 0 26 56 27 70 1z m168 7 c14 -12 17 -88 3
-88 -6 0 -11 17 -13 37 -2 27 -8 39 -20 41 -15 3 -18 -4 -18 -37 0 -30 -4 -41
-15 -41 -11 0 -15 11 -15 41 0 33 -3 40 -17 37 -13 -2 -19 -14 -21 -41 -5 -54
-22 -45 -22 12 l0 48 63 0 c34 0 68 -4 75 -9z m230 -40 c2 -29 -1 -48 -7 -48
-6 0 -11 18 -11 41 0 33 -3 40 -17 37 -13 -2 -19 -14 -21 -41 -4 -50 -22 -47
-22 4 0 33 -3 40 -17 37 -13 -2 -19 -14 -21 -41 -5 -54 -22 -45 -22 12 l0 48
68 -1 67 -1 3 -47z m52 2 c0 -27 -4 -50 -10 -50 -5 0 -10 23 -10 50 0 28 5 50
10 50 6 0 10 -22 10 -50z m282 25 c17 -37 -3 -75 -40 -75 -35 0 -52 16 -52 50
0 34 17 50 52 50 21 0 32 -7 40 -25z m106 -7 c3 -25 0 -28 -27 -28 -17 0 -31
-4 -31 -10 0 -5 14 -10 31 -10 17 0 28 -4 24 -10 -11 -18 -64 -11 -75 9 -22
43 3 84 49 79 20 -2 27 -9 29 -30z m82 22 c0 -5 -9 -10 -20 -10 -11 0 -20 -4
-20 -10 0 -5 4 -10 8 -10 5 0 17 -6 27 -14 16 -12 17 -16 6 -30 -14 -17 -61
-22 -61 -7 0 5 12 11 28 13 l27 4 -27 14 c-26 12 -36 38 -21 53 10 11 53 8 53
-3z m278 -22 c3 -25 0 -28 -27 -28 -17 0 -31 -4 -31 -10 0 -5 14 -10 31 -10
17 0 28 -4 24 -10 -11 -18 -64 -11 -75 9 -22 43 3 84 49 79 20 -2 27 -9 29
-30z m125 22 c-19 -8 -23 -17 -23 -50 0 -22 -4 -40 -10 -40 -5 0 -10 23 -10
50 0 50 0 50 33 49 29 0 30 -1 10 -9z m105 -22 c3 -25 0 -28 -27 -28 -17 0
-31 -4 -31 -10 0 -5 14 -10 31 -10 17 0 28 -4 24 -10 -11 -18 -64 -11 -75 9
-22 43 3 84 49 79 20 -2 27 -9 29 -30z m100 -20 l3 -46 -38 1 c-31 2 -39 6
-41 25 -3 18 2 23 27 28 17 4 31 11 31 16 0 6 -11 8 -25 6 -17 -4 -25 -1 -25
9 0 10 10 13 33 11 31 -3 32 -5 35 -50z m42 2 c0 -27 -4 -50 -10 -50 -5 0 -10
23 -10 50 0 28 5 50 10 50 6 0 10 -22 10 -50z m90 40 c0 -5 -9 -10 -20 -10
-27 0 -25 -13 3 -25 12 -6 22 -19 22 -30 0 -15 -8 -21 -32 -23 -40 -4 -44 15
-5 20 l27 4 -27 14 c-26 12 -36 38 -21 53 10 11 53 8 53 -3z m158 -2 c7 -7 12
-20 12 -30 0 -14 -8 -18 -35 -18 -19 0 -35 -4 -35 -10 0 -5 14 -10 30 -10 17
0 30 -4 30 -10 0 -14 -54 -12 -68 2 -7 7 -12 24 -12 38 0 31 17 50 45 50 12 0
26 -5 33 -12z m170 -40 c2 -29 -1 -48 -7 -48 -6 0 -11 18 -11 41 0 33 -3 40
-17 37 -13 -2 -19 -14 -21 -41 -4 -50 -22 -47 -22 4 0 33 -3 40 -17 37 -13 -2
-19 -14 -21 -41 -5 -54 -22 -45 -22 12 l0 48 68 -1 67 -1 3 -47z m122 32 c-11
-11 -20 -33 -20 -50 0 -16 -4 -30 -10 -30 -5 0 -10 23 -10 50 0 49 1 50 30 50
l30 0 -20 -20z m108 8 c7 -7 12 -20 12 -30 0 -14 -8 -18 -35 -18 -19 0 -35 -4
-35 -10 0 -5 14 -10 30 -10 17 0 30 -4 30 -10 0 -14 -54 -12 -68 2 -7 7 -12
24 -12 38 0 31 17 50 45 50 12 0 26 -5 33 -12z m102 2 c0 -5 -11 -10 -24 -10
-26 0 -39 -20 -30 -45 4 -8 17 -15 30 -15 13 0 24 -5 24 -11 0 -6 -14 -9 -32
-7 -43 4 -61 47 -33 78 19 21 65 28 65 10z m100 -10 c15 -27 5 -40 -31 -40
-16 0 -29 -4 -29 -10 0 -5 14 -10 30 -10 17 0 30 -4 30 -10 0 -14 -54 -12 -68
2 -7 7 -12 24 -12 38 0 14 5 31 12 38 19 19 56 14 68 -8z m50 -30 c0 -27 -4
-50 -10 -50 -5 0 -10 23 -10 50 0 28 5 50 10 50 6 0 10 -22 10 -50z m164 34
c3 -9 6 -30 6 -48 0 -31 -2 -33 -40 -34 -36 -2 -40 0 -40 23 0 20 6 27 30 32
35 6 41 25 8 23 -34 -3 -40 -1 -33 10 10 16 62 12 69 -6z m156 -3 c5 -11 10
-33 10 -50 0 -29 -2 -31 -40 -31 -27 0 -43 5 -46 15 -8 20 13 45 37 45 11 0
19 5 19 11 0 7 -10 9 -25 7 -14 -3 -25 -2 -25 2 0 26 56 27 70 1z m118 -33 c2
-29 -1 -48 -7 -48 -6 0 -11 18 -11 41 0 36 -2 40 -22 37 -19 -2 -24 -10 -26
-40 -5 -55 -22 -46 -22 11 l0 49 43 -2 42 -1 3 -47z m44 15 c2 -30 7 -38 23
-38 16 0 21 8 23 38 5 54 22 45 22 -11 0 -48 0 -49 -32 -50 -44 -1 -58 13 -58
59 0 50 18 51 22 2z m166 -15 l3 -48 -36 0 c-23 0 -38 6 -41 15 -8 20 13 45
37 45 11 0 19 5 19 11 0 7 -10 9 -25 7 -14 -3 -25 -2 -25 2 0 14 15 21 40 18
22 -3 25 -8 28 -50z m5642 26 c0 -9 -5 -14 -12 -12 -18 6 -21 28 -4 28 9 0 16
-7 16 -16z m360 -124 c0 -5 -4 -10 -10 -10 -5 0 -10 5 -10 10 0 6 5 10 10 10
6 0 10 -4 10 -10z m-9580 -99 c0 -25 3 -28 25 -23 32 6 55 -13 55 -47 0 -37
-17 -51 -62 -51 l-38 0 0 75 c0 43 4 75 10 75 6 0 10 -13 10 -29z m640 -44 l0
-74 -40 -1 c-34 -2 -42 2 -52 23 -8 19 -8 31 1 51 9 22 17 25 41 22 27 -4 30
-2 30 24 0 15 5 28 10 28 6 0 10 -31 10 -73z m860 0 l0 -74 -40 -1 c-34 -2
-42 2 -52 23 -8 19 -8 31 1 51 9 22 17 25 41 22 27 -4 30 -2 30 24 0 15 5 28
10 28 6 0 10 -31 10 -73z m370 63 c0 -5 -4 -10 -10 -10 -14 0 -12 -27 3 -34
10 -5 10 -7 0 -12 -7 -3 -13 -23 -13 -45 0 -27 -4 -39 -14 -39 -20 0 -26 87
-8 123 13 26 42 38 42 17z m30 0 c0 -5 -4 -10 -10 -10 -5 0 -10 5 -10 10 0 6
5 10 10 10 6 0 10 -4 10 -10z m-3280 -24 c0 -8 6 -17 13 -20 10 -5 10 -7 0
-12 -7 -3 -13 -18 -13 -34 0 -16 6 -30 13 -33 6 -2 9 -8 5 -12 -16 -17 -38 5
-38 39 0 19 -6 37 -12 40 -10 5 -10 7 0 12 6 3 12 12 12 20 0 8 5 14 10 14 6
0 10 -6 10 -14z m-140 -36 c15 -27 5 -40 -31 -40 -16 0 -29 -4 -29 -10 0 -5
14 -10 30 -10 17 0 30 -4 30 -10 0 -14 -54 -12 -68 2 -7 7 -12 24 -12 38 0 14
5 31 12 38 19 19 56 14 68 -8z m90 10 c0 -5 -12 -10 -27 -10 l-28 0 29 -23
c37 -30 30 -57 -14 -57 -16 0 -30 5 -30 10 0 6 11 10 25 10 14 0 25 5 25 10 0
6 -6 10 -14 10 -7 0 -19 7 -26 15 -10 12 -10 18 0 30 14 17 60 21 60 5z m176
-15 c15 -23 15 -27 0 -50 -28 -42 -96 -24 -96 25 0 49 68 67 96 25z m54 -15
c0 -33 3 -40 20 -40 17 0 20 7 20 40 0 22 5 40 10 40 6 0 10 -23 10 -51 l0
-50 -37 3 c-38 3 -38 3 -41 51 -2 28 1 47 7 47 6 0 11 -18 11 -40z m200 30 c0
-5 -9 -10 -20 -10 -27 0 -25 -13 3 -25 12 -6 22 -19 22 -30 0 -15 -8 -21 -32
-23 -40 -4 -44 15 -5 20 l27 4 -27 14 c-26 12 -36 38 -21 53 10 11 53 8 53 -3z
m108 -22 c3 -25 0 -28 -27 -28 -17 0 -31 -4 -31 -10 0 -5 14 -10 31 -10 17 0
28 -4 24 -10 -11 -18 -64 -11 -75 9 -22 43 3 84 49 79 20 -2 27 -9 29 -30z
m164 18 c11 -17 9 -86 -2 -86 -5 0 -10 18 -10 40 0 33 -3 40 -20 40 -17 0 -20
-7 -20 -40 0 -22 -4 -40 -10 -40 -5 0 -10 16 -10 35 0 23 -6 38 -16 42 -20 7
-34 -13 -34 -49 0 -16 -4 -28 -10 -28 -5 0 -10 22 -10 48 l0 49 68 0 c40 1 70
-4 74 -11z m120 1 c12 -18 10 -61 -4 -75 -7 -7 -22 -12 -35 -12 -18 0 -23 -6
-23 -25 0 -14 -4 -25 -10 -25 -6 0 -10 31 -10 73 l0 74 37 1 c20 1 41 -4 45
-11z m68 -7 c-11 -11 -20 -33 -20 -50 0 -16 -4 -30 -10 -30 -5 0 -10 23 -10
50 0 49 1 50 30 50 l30 0 -20 -20z m108 8 c7 -7 12 -20 12 -30 0 -14 -8 -18
-35 -18 -19 0 -35 -4 -35 -10 0 -5 14 -10 30 -10 17 0 30 -4 30 -10 0 -14 -54
-12 -68 2 -7 7 -12 24 -12 38 0 31 17 50 45 50 12 0 26 -5 33 -12z m160 0 c7
-7 12 -20 12 -30 0 -14 -8 -18 -35 -18 -19 0 -35 -4 -35 -10 0 -5 14 -10 30
-10 17 0 30 -4 30 -10 0 -14 -54 -12 -68 2 -7 7 -12 24 -12 38 0 31 17 50 45
50 12 0 26 -5 33 -12z m170 -40 c2 -29 -1 -48 -7 -48 -6 0 -11 18 -11 41 0 33
-3 40 -17 37 -13 -2 -19 -14 -21 -41 -4 -50 -22 -48 -22 3 0 33 -3 40 -20 40
-17 0 -20 -7 -20 -40 0 -22 -4 -40 -10 -40 -5 0 -10 23 -10 50 l0 50 68 -2 67
-3 3 -47z m224 15 c2 -30 7 -38 23 -38 16 0 21 8 23 38 5 54 22 45 22 -11 l0
-49 -37 -1 c-20 -1 -41 4 -45 11 -11 17 -10 87 1 87 6 0 11 -17 13 -37z m158
27 c0 -5 -12 -10 -27 -10 l-28 0 29 -23 c37 -30 30 -57 -14 -57 -16 0 -30 5
-30 10 0 6 11 10 25 10 14 0 25 5 25 10 0 6 -6 10 -14 10 -7 0 -19 7 -26 15
-10 12 -10 18 0 30 14 17 60 21 60 5z m100 1 c0 -5 -12 -11 -27 -13 -22 -2
-29 -9 -31 -30 -3 -25 0 -28 28 -28 18 0 29 -4 25 -10 -9 -14 -48 -13 -63 2
-7 7 -12 24 -12 38 0 14 5 31 12 38 14 14 68 16 68 3z m84 -7 c3 -9 6 -30 6
-48 0 -31 -2 -33 -40 -34 -36 -2 -40 0 -40 23 0 20 6 27 30 32 35 6 41 25 8
23 -34 -3 -40 -1 -33 10 10 16 62 12 69 -6z m274 4 c7 -7 12 -20 12 -30 0 -14
-8 -18 -36 -18 -21 0 -33 -4 -29 -10 3 -5 20 -10 36 -10 18 0 28 -4 24 -10 -3
-5 -20 -10 -36 -10 -38 0 -58 37 -41 75 13 27 49 34 70 13z m172 -14 c15 -38
12 -74 -5 -74 -11 0 -15 11 -15 40 0 33 -3 40 -20 40 -17 0 -20 -7 -20 -40 0
-22 -4 -40 -10 -40 -5 0 -10 22 -10 48 l0 49 35 1 c30 1 37 -3 45 -24z m116 1
c15 -23 15 -27 0 -50 -28 -42 -96 -24 -96 25 0 49 68 67 96 25z m49 -5 c9 -41
22 -46 30 -10 6 29 21 47 31 37 7 -7 -34 -97 -44 -97 -5 0 -19 23 -30 50 -16
39 -18 50 -7 50 7 0 16 -13 20 -30z m167 5 c17 -37 -3 -75 -40 -75 -35 0 -52
16 -52 50 0 34 17 50 52 50 21 0 32 -7 40 -25z m88 16 c0 -5 -12 -11 -27 -13
l-28 -4 28 -14 c40 -20 34 -54 -10 -58 -19 -2 -33 1 -33 7 0 6 11 11 25 11 14
0 25 5 25 10 0 6 -4 10 -8 10 -5 0 -17 6 -27 14 -16 12 -17 16 -6 30 14 17 61
22 61 7z m268 -3 c7 -7 12 -20 12 -30 0 -14 -8 -18 -36 -18 -21 0 -33 -4 -29
-10 3 -5 20 -10 36 -10 18 0 28 -4 24 -10 -3 -5 -20 -10 -36 -10 -38 0 -58 37
-41 75 13 27 49 34 70 13z m92 2 c0 -5 -9 -10 -20 -10 -11 0 -20 -4 -20 -10 0
-5 4 -10 8 -10 5 0 17 -6 27 -14 16 -12 17 -16 6 -30 -14 -17 -61 -22 -61 -7
0 5 12 11 28 13 l27 4 -27 14 c-26 12 -36 38 -21 53 10 11 53 8 53 -3z m98
-42 l3 -48 -36 0 c-23 0 -38 6 -41 15 -8 20 13 45 37 45 11 0 19 5 19 11 0 7
-10 9 -25 7 -14 -3 -25 -2 -25 2 0 14 15 21 40 18 22 -3 25 -8 28 -50z m112 2
c0 -27 -4 -50 -10 -50 -5 0 -10 23 -10 50 0 28 5 50 10 50 6 0 10 -22 10 -50z
m116 25 c15 -23 15 -27 0 -50 -28 -42 -96 -24 -96 25 0 49 68 67 96 25z m94
15 c0 -5 -12 -10 -27 -10 l-28 0 29 -23 c37 -30 30 -57 -14 -57 -16 0 -30 5
-30 10 0 6 11 10 25 10 14 0 25 5 25 10 0 6 -6 10 -14 10 -7 0 -19 7 -26 15
-10 12 -10 18 0 30 14 17 60 21 60 5z m162 -3 c12 -18 10 -61 -4 -75 -7 -7
-22 -12 -35 -12 -18 0 -23 -6 -23 -25 0 -14 -4 -25 -10 -25 -6 0 -10 31 -10
73 l0 74 37 1 c20 1 41 -4 45 -11z m106 -39 l3 -46 -38 1 c-31 2 -39 6 -41 25
-3 18 2 23 27 28 17 4 31 11 31 16 0 6 -11 8 -25 6 -17 -4 -25 -1 -25 9 0 10
10 13 33 11 31 -3 32 -5 35 -50z m70 41 c-12 -7 -18 -22 -18 -49 0 -22 -4 -40
-10 -40 -5 0 -10 23 -10 50 0 48 1 50 28 50 23 -1 24 -2 10 -11z m100 -41 l3
-46 -38 1 c-31 2 -39 6 -41 25 -3 18 2 23 27 28 17 4 31 11 31 16 0 6 -11 8
-25 6 -17 -4 -25 -1 -25 9 0 10 10 13 33 11 31 -3 32 -5 35 -50z m142 42 c0
-5 -9 -10 -20 -10 -11 0 -20 -4 -20 -10 0 -5 4 -10 8 -10 5 0 17 -6 27 -14 16
-12 17 -16 6 -30 -14 -17 -61 -22 -61 -7 0 5 12 11 28 13 l27 4 -27 14 c-26
12 -36 38 -21 53 10 11 53 8 53 -3z m50 -30 c0 -33 3 -40 20 -40 17 0 20 7 20
40 0 22 5 40 10 40 6 0 10 -23 10 -51 l0 -50 -37 3 c-38 3 -38 3 -41 51 -2 28
1 47 7 47 6 0 11 -18 11 -40z m181 14 c14 -37 -13 -78 -47 -71 -21 4 -24 0
-24 -24 0 -16 -4 -29 -10 -29 -6 0 -10 31 -10 73 l0 74 40 1 c35 2 42 -2 51
-24z m97 14 c7 -7 12 -20 12 -30 0 -14 -8 -18 -36 -18 -21 0 -33 -4 -29 -10 3
-5 20 -10 36 -10 18 0 28 -4 24 -10 -3 -5 -20 -10 -36 -10 -38 0 -58 37 -41
75 13 27 49 34 70 13z m73 -4 c-14 -11 -21 -26 -21 -50 0 -19 -4 -34 -10 -34
-5 0 -10 22 -10 48 0 48 1 49 31 50 31 1 31 0 10 -14z m103 0 c3 -9 6 -30 6
-48 0 -31 -2 -33 -40 -34 -36 -2 -40 0 -40 23 0 20 6 27 30 32 35 6 41 25 8
23 -34 -3 -40 -1 -33 10 10 16 62 12 69 -6z m65 -5 c-11 -11 -18 -27 -15 -35
6 -17 -3 -44 -15 -44 -5 0 -9 23 -9 50 0 49 1 50 30 50 l30 0 -21 -21z m51
-69 c0 -5 -4 -10 -10 -10 -5 0 -10 5 -10 10 0 6 5 10 10 10 6 0 10 -4 10 -10z
m6980 -45 c0 -8 -4 -15 -9 -15 -13 0 -22 16 -14 24 11 11 23 6 23 -9z m-4110
-153 c0 -13 -12 -22 -22 -16 -10 6 -1 24 13 24 5 0 9 -4 9 -8z m-375 -182 c3
-5 1 -10 -4 -10 -6 0 -11 5 -11 10 0 6 2 10 4 10 3 0 8 -4 11 -10z m-5688 -90
c53 -32 63 -63 63 -205 0 -142 -10 -173 -63 -205 -31 -19 -56 -20 -832 -20
-776 0 -801 1 -832 20 -53 32 -63 63 -63 205 0 142 10 173 63 205 31 19 56 20
832 20 776 0 801 -1 832 -20z m5433 -40 c0 -5 -2 -10 -4 -10 -3 0 -8 5 -11 10
-3 6 -1 10 4 10 6 0 11 -4 11 -10z m6260 -74 c0 -3 -4 -8 -10 -11 -5 -3 -10
-1 -10 4 0 6 5 11 10 11 6 0 10 -2 10 -4z m-2800 -41 c0 -8 -4 -15 -10 -15 -5
0 -10 7 -10 15 0 8 5 15 10 15 6 0 10 -7 10 -15z m-10 -35 c0 -5 -4 -10 -10
-10 -5 0 -10 5 -10 10 0 6 5 10 10 10 6 0 10 -4 10 -10z m-3639 -115 c0 -5 -9
-11 -21 -13 -20 -3 -27 8 -13 22 10 9 34 3 34 -9z m4607 -192 c-5 -25 -28 -28
-28 -4 0 12 6 21 16 21 9 0 14 -7 12 -17z m980 -51 c2 -7 -3 -12 -12 -12 -9 0
-16 7 -16 16 0 17 22 14 28 -4z m-1903 -122 c0 -22 -29 -18 -33 3 -3 14 1 18
15 15 10 -2 18 -10 18 -18z m-1105 0 c0 -5 -4 -10 -9 -10 -6 0 -13 5 -16 10
-3 6 1 10 9 10 9 0 16 -4 16 -10z m2860 -65 c0 -8 -7 -15 -15 -15 -8 0 -15 7
-15 15 0 8 7 15 15 15 8 0 15 -7 15 -15z m780 -76 c0 -5 -7 -9 -15 -9 -15 0
-20 12 -9 23 8 8 24 -1 24 -14z m-549 -72 c-13 -13 -26 -3 -16 12 3 6 11 8 17
5 6 -4 6 -10 -1 -17z m-1891 -81 c0 -3 -4 -8 -10 -11 -5 -3 -10 -1 -10 4 0 6
5 11 10 11 6 0 10 -2 10 -4z m-4800 -1061 l0 -76 30 16 c47 24 95 19 132 -14
29 -25 32 -35 36 -95 5 -77 -8 -116 -51 -152 -26 -22 -37 -25 -76 -20 -25 3
-72 6 -103 5 l-58 0 0 205 0 206 45 0 45 0 0 -75z m338 63 c7 -7 12 -21 12
-33 0 -28 -19 -45 -50 -45 -31 0 -50 17 -50 45 0 12 5 26 12 33 15 15 61 15
76 0z m172 -193 l0 -205 -50 0 -50 0 0 205 0 205 50 0 50 0 0 -205z m148 193
c7 -7 12 -21 12 -33 0 -28 -19 -45 -50 -45 -31 0 -50 17 -50 45 0 12 5 26 12
33 15 15 61 15 76 0z m352 -193 l0 -205 -45 0 c-25 0 -45 5 -45 11 0 5 -10 3
-22 -5 -12 -9 -41 -16 -63 -16 -75 0 -115 51 -115 145 0 63 17 103 56 134 29
23 92 28 125 11 18 -10 19 -7 19 60 l0 70 45 0 45 0 0 -205z m660 0 l0 -205
-50 0 c-28 0 -50 5 -50 11 0 5 -10 3 -22 -5 -50 -36 -134 -11 -162 48 -34 73
-7 190 53 220 35 18 84 21 112 6 18 -10 19 -7 19 60 l0 70 50 0 50 0 0 -205z
m-2390 105 l0 -80 75 0 75 0 0 80 0 80 50 0 50 0 0 -195 0 -195 -50 0 -50 0 0
75 0 75 -75 0 -75 0 0 -75 0 -75 -50 0 -50 0 0 195 0 195 50 0 50 0 0 -80z
m509 -34 c41 -22 51 -55 51 -171 l0 -105 -45 0 c-25 0 -45 5 -45 11 0 5 -10 3
-22 -5 -23 -16 -73 -21 -103 -10 -26 10 -48 62 -41 100 9 45 46 71 112 79 54
7 66 19 42 43 -16 16 -57 15 -92 -3 -37 -20 -36 -20 -36 19 0 28 5 36 28 44
40 15 119 14 151 -2z m1480 0 c41 -22 51 -55 51 -171 l0 -105 -45 0 c-25 0
-45 5 -45 11 0 5 -10 3 -22 -5 -61 -43 -148 -2 -148 69 0 55 41 91 113 100 57
7 69 19 45 43 -16 16 -51 15 -93 -2 l-35 -15 0 34 c0 27 5 35 28 43 40 15 119
14 151 -2z m660 -1 c34 -17 61 -70 61 -119 l0 -36 -90 0 c-65 0 -90 -3 -90
-12 1 -49 73 -69 146 -41 10 4 14 -3 14 -26 0 -41 -32 -54 -118 -49 -54 3 -67
8 -94 36 -27 26 -32 40 -36 90 -5 72 15 122 61 151 38 25 106 27 146 6z m275
9 c10 -4 16 -18 16 -40 0 -32 -1 -33 -30 -22 -36 12 -80 3 -80 -16 0 -8 19
-21 43 -31 58 -23 87 -52 87 -87 0 -64 -48 -98 -139 -98 -70 0 -81 6 -81 47 0
29 3 34 18 28 31 -12 87 -16 101 -6 22 15 6 36 -39 51 -91 30 -109 123 -32
164 27 15 107 21 136 10z m-1854 -144 l0 -140 -50 0 -50 0 0 140 0 140 50 0
50 0 0 -140z m320 0 l0 -140 -50 0 -50 0 0 140 0 140 50 0 50 0 0 -140z m-880
-750 c0 -5 -7 -10 -15 -10 -8 0 -15 5 -15 10 0 6 7 10 15 10 8 0 15 -4 15 -10z
m880 0 c0 -5 -7 -10 -15 -10 -8 0 -15 5 -15 10 0 6 7 10 15 10 8 0 15 -4 15
-10z m320 0 c0 -5 -7 -10 -15 -10 -8 0 -15 5 -15 10 0 6 7 10 15 10 8 0 15 -4
15 -10z m330 0 c0 -5 -7 -10 -15 -10 -8 0 -15 5 -15 10 0 6 7 10 15 10 8 0 15
-4 15 -10z m650 0 c0 -5 -7 -10 -15 -10 -8 0 -15 5 -15 10 0 6 7 10 15 10 8 0
15 -4 15 -10z m130 0 c0 -5 -7 -10 -15 -10 -8 0 -15 5 -15 10 0 6 7 10 15 10
8 0 15 -4 15 -10z m1770 0 c0 -5 -7 -10 -15 -10 -8 0 -15 5 -15 10 0 6 7 10
15 10 8 0 15 -4 15 -10z"/>
<path d="M17140 8062 c-39 -12 -51 -47 -48 -138 4 -117 13 -124 138 -124 127
0 130 3 130 132 0 122 -8 132 -119 135 -42 1 -87 -1 -101 -5z m188 -39 c-4
-22 -22 -20 -26 1 -2 10 3 16 13 16 10 0 15 -7 13 -17z m-40 -39 c63 -70 -29
-173 -106 -118 -53 37 -46 115 12 140 38 16 64 10 94 -22z"/>
<path d="M17193 7966 c-27 -24 -27 -26 -13 -53 28 -51 100 -35 100 22 0 21
-32 55 -52 55 -4 0 -20 -11 -35 -24z"/>
<path d="M2560 7880 c0 -25 4 -30 25 -30 21 0 25 5 25 30 0 25 -4 30 -25 30
-21 0 -25 -5 -25 -30z"/>
<path d="M2817 7896 c-10 -26 4 -47 27 -44 15 2 21 10 21 28 0 29 -38 41 -48
16z"/>
<path d="M3037 7896 c-10 -26 4 -47 27 -44 15 2 21 10 21 28 0 29 -38 41 -48
16z"/>
<path d="M876 7918 c-9 -35 -8 -38 14 -38 11 0 20 3 20 8 0 19 -13 52 -20 52
-4 0 -10 -10 -14 -22z"/>
<path d="M3600 7925 c0 -26 14 -31 39 -16 19 12 6 41 -19 41 -15 0 -20 -7 -20
-25z"/>
<path d="M994 7895 c-9 -23 3 -45 25 -45 21 0 33 22 25 45 -4 8 -15 15 -25 15
-11 0 -22 -7 -25 -15z"/>
<path d="M1170 7900 c0 -5 12 -10 26 -10 14 0 23 4 19 10 -3 6 -15 10 -26 10
-10 0 -19 -4 -19 -10z"/>
<path d="M1360 7900 c0 -5 12 -10 26 -10 14 0 23 4 19 10 -3 6 -15 10 -26 10
-10 0 -19 -4 -19 -10z"/>
<path d="M1640 7860 c0 -5 9 -10 20 -10 11 0 20 5 20 10 0 6 -9 10 -20 10 -11
0 -20 -4 -20 -10z"/>
<path d="M1840 7860 c0 -5 9 -10 20 -10 11 0 20 5 20 10 0 6 -9 10 -20 10 -11
0 -20 -4 -20 -10z"/>
<path d="M1944 7895 c-10 -25 4 -45 31 -45 21 0 25 5 25 30 0 25 -4 30 -25 30
-14 0 -28 -7 -31 -15z"/>
<path d="M2450 7860 c0 -5 9 -10 20 -10 11 0 20 5 20 10 0 6 -9 10 -20 10 -11
0 -20 -4 -20 -10z"/>
<path d="M2930 7860 c0 -5 9 -10 20 -10 11 0 20 5 20 10 0 6 -9 10 -20 10 -11
0 -20 -4 -20 -10z"/>
<path d="M3155 7900 c-4 -6 5 -10 19 -10 14 0 26 5 26 10 0 6 -9 10 -19 10
-11 0 -23 -4 -26 -10z"/>
<path d="M3776 7895 c-9 -24 4 -45 29 -45 13 0 25 7 29 15 9 24 -4 45 -29 45
-13 0 -25 -7 -29 -15z"/>
<path d="M3940 7900 c0 -5 12 -10 26 -10 14 0 23 4 19 10 -3 6 -15 10 -26 10
-10 0 -19 -4 -19 -10z"/>
<path d="M4114 7895 c-10 -25 4 -45 31 -45 21 0 25 5 25 30 0 25 -4 30 -25 30
-14 0 -28 -7 -31 -15z"/>
<path d="M4185 6521 c-10 -34 4 -63 28 -59 18 2 22 10 22 38 0 28 -4 36 -22
38 -14 2 -23 -3 -28 -17z"/>
<path d="M2920 6574 c0 -21 4 -25 23 -22 14 2 23 11 25 26 3 18 -1 22 -22 22
-21 0 -26 -5 -26 -26z"/>
<path d="M2920 6485 c0 -23 4 -26 28 -23 19 2 27 9 27 23 0 14 -8 21 -27 23
-24 3 -28 0 -28 -23z"/>
<path d="M5840 6566 c0 -22 5 -36 13 -36 42 1 51 62 10 68 -20 3 -23 -1 -23
-32z"/>
<path d="M3120 6535 c-11 -13 -9 -15 15 -15 16 0 25 5 23 12 -7 19 -24 20 -38
3z"/>
<path d="M4380 6525 c-20 -24 -4 -65 25 -65 26 0 40 27 30 60 -7 24 -37 26
-55 5z"/>
<path d="M4645 6480 c-8 -12 20 -24 35 -15 5 3 10 10 10 16 0 12 -37 12 -45
-1z"/>
<path d="M4824 6526 c-3 -8 -4 -25 -2 -38 2 -17 9 -23 28 -23 22 0 25 4 25 35
0 29 -4 36 -23 38 -13 2 -24 -3 -28 -12z"/>
<path d="M5390 6535 c-11 -13 -9 -15 15 -15 16 0 25 5 23 12 -7 19 -24 20 -38
3z"/>
<path d="M6014 6526 c-3 -8 -4 -25 -2 -38 2 -17 9 -23 28 -23 22 0 25 4 25 35
0 29 -4 36 -23 38 -13 2 -24 -3 -28 -12z"/>
<path d="M6584 6526 c-3 -8 -4 -25 -2 -38 2 -17 9 -23 28 -23 22 0 25 4 25 35
0 29 -4 36 -23 38 -13 2 -24 -3 -28 -12z"/>
<path d="M6950 6525 c-20 -24 -4 -65 25 -65 26 0 40 27 30 60 -7 24 -37 26
-55 5z"/>
<path d="M2999 5601 c-26 -27 -29 -36 -29 -96 0 -60 3 -69 29 -96 55 -55 128
-31 150 48 13 47 13 49 0 96 -22 81 -94 104 -150 48z"/>
<path d="M8112 5540 c-12 -35 -22 -68 -22 -72 0 -4 21 -8 46 -8 51 0 49 -9 14
95 l-17 49 -21 -64z"/>
<path d="M3561 5427 c-31 -16 -36 -31 -16 -51 21 -21 31 -20 55 4 43 43 16 76
-39 47z"/>
<path d="M4184 5532 c-6 -4 -16 -17 -23 -29 -11 -22 -10 -23 39 -23 52 0 58 6
40 41 -11 19 -36 25 -56 11z"/>
<path d="M5226 5514 c-10 -10 -16 -33 -16 -64 0 -57 18 -80 60 -80 36 0 50 23
50 80 0 23 -5 50 -10 61 -13 23 -62 26 -84 3z"/>
<path d="M6760 5515 c-6 -8 -14 -32 -17 -54 -10 -73 48 -120 90 -73 19 21 23
92 7 123 -13 23 -62 26 -80 4z"/>
<path d="M7447 5522 c-28 -31 -21 -42 28 -42 37 0 45 3 45 18 0 41 -45 55 -73
24z"/>
<path d="M8807 5512 c-19 -21 -23 -92 -7 -123 7 -12 21 -19 41 -19 25 0 32 6
45 37 16 38 13 85 -7 110 -16 19 -53 16 -72 -5z"/>
<path d="M9153 5528 c-6 -7 -13 -21 -16 -30 -6 -16 0 -18 43 -18 52 0 58 7 40
41 -12 21 -52 26 -67 7z"/>
<path d="M9617 5512 c-24 -26 -23 -104 1 -125 23 -21 66 -22 83 -1 7 9 13 37
13 64 0 27 -6 55 -13 64 -18 22 -64 20 -84 -2z"/>
<path d="M4404 4646 c-10 -26 4 -48 28 -44 17 2 23 10 23 28 0 18 -6 26 -23
28 -13 2 -25 -3 -28 -12z"/>
<path d="M7497 4653 c-4 -3 -7 -17 -7 -30 0 -18 5 -23 25 -23 21 0 25 5 25 30
0 22 -5 30 -18 30 -10 0 -22 -3 -25 -7z"/>
<path d="M2986 4645 c-9 -25 4 -45 30 -45 20 0 24 5 24 30 0 25 -4 30 -24 30
-13 0 -26 -7 -30 -15z"/>
<path d="M3610 4610 c0 -5 9 -10 20 -10 11 0 20 5 20 10 0 6 -9 10 -20 10 -11
0 -20 -4 -20 -10z"/>
<path d="M3720 4630 c0 -25 4 -30 25 -30 21 0 25 5 25 30 0 25 -4 30 -25 30
-21 0 -25 -5 -25 -30z"/>
<path d="M3830 4610 c0 -5 9 -10 20 -10 11 0 20 5 20 10 0 6 -9 10 -20 10 -11
0 -20 -4 -20 -10z"/>
<path d="M4074 4645 c-10 -25 4 -45 31 -45 21 0 25 5 25 30 0 25 -4 30 -25 30
-14 0 -28 -7 -31 -15z"/>
<path d="M4300 4610 c0 -5 9 -10 20 -10 11 0 20 5 20 10 0 6 -9 10 -20 10 -11
0 -20 -4 -20 -10z"/>
<path d="M4524 4645 c-10 -25 4 -45 31 -45 21 0 25 5 25 30 0 25 -4 30 -25 30
-14 0 -28 -7 -31 -15z"/>
<path d="M4700 4630 c0 -25 4 -30 25 -30 21 0 25 5 25 30 0 25 -4 30 -25 30
-21 0 -25 -5 -25 -30z"/>
<path d="M4814 4646 c-10 -26 4 -48 28 -44 17 2 23 10 23 28 0 18 -6 26 -23
28 -13 2 -25 -3 -28 -12z"/>
<path d="M5120 4650 c0 -5 12 -10 26 -10 14 0 23 4 19 10 -3 6 -15 10 -26 10
-10 0 -19 -4 -19 -10z"/>
<path d="M5434 4646 c-10 -26 4 -48 28 -44 17 2 23 10 23 28 0 18 -6 26 -23
28 -13 2 -25 -3 -28 -12z"/>
<path d="M5596 4645 c-9 -25 4 -45 30 -45 20 0 24 5 24 30 0 25 -4 30 -24 30
-13 0 -26 -7 -30 -15z"/>
<path d="M5714 4646 c-10 -26 4 -48 28 -44 17 2 23 10 23 28 0 18 -6 26 -23
28 -13 2 -25 -3 -28 -12z"/>
<path d="M5880 4610 c0 -5 9 -10 20 -10 11 0 20 5 20 10 0 6 -9 10 -20 10 -11
0 -20 -4 -20 -10z"/>
<path d="M6040 4650 c0 -5 9 -10 20 -10 11 0 20 5 20 10 0 6 -9 10 -20 10 -11
0 -20 -4 -20 -10z"/>
<path d="M6284 4646 c-10 -26 4 -48 28 -44 17 2 23 10 23 28 0 18 -6 26 -23
28 -13 2 -25 -3 -28 -12z"/>
<path d="M6654 4645 c-10 -25 4 -45 31 -45 21 0 25 5 25 30 0 25 -4 30 -25 30
-14 0 -28 -7 -31 -15z"/>
<path d="M6770 4650 c0 -5 12 -10 26 -10 14 0 23 4 19 10 -3 6 -15 10 -26 10
-10 0 -19 -4 -19 -10z"/>
<path d="M7176 4645 c-9 -25 4 -45 30 -45 20 0 24 5 24 30 0 25 -4 30 -24 30
-13 0 -26 -7 -30 -15z"/>
<path d="M7390 4610 c0 -5 6 -10 14 -10 8 0 18 5 21 10 3 6 -3 10 -14 10 -12
0 -21 -4 -21 -10z"/>
<path d="M7610 4630 c0 -28 3 -31 28 -28 21 2 27 8 27 28 0 20 -6 26 -27 28
-25 3 -28 0 -28 -28z"/>
<path d="M7790 4610 c0 -5 9 -10 20 -10 11 0 20 5 20 10 0 6 -9 10 -20 10 -11
0 -20 -4 -20 -10z"/>
<path d="M3764 4376 c-10 -26 4 -48 28 -44 17 2 23 10 23 28 0 18 -6 26 -23
28 -13 2 -25 -3 -28 -12z"/>
<path d="M7360 4360 c0 -25 4 -30 25 -30 21 0 25 5 25 30 0 25 -4 30 -25 30
-21 0 -25 -5 -25 -30z"/>
<path d="M8697 4376 c-10 -26 4 -47 27 -44 15 2 21 10 21 28 0 29 -38 41 -48
16z"/>
<path d="M3470 4405 c0 -26 14 -31 39 -16 19 12 6 41 -19 41 -15 0 -20 -7 -20
-25z"/>
<path d="M3004 4375 c-10 -25 4 -45 31 -45 21 0 25 5 25 30 0 25 -4 30 -25 30
-14 0 -28 -7 -31 -15z"/>
<path d="M3294 4375 c-10 -25 4 -45 31 -45 21 0 25 5 25 30 0 25 -4 30 -25 30
-14 0 -28 -7 -31 -15z"/>
<path d="M3646 4375 c-9 -25 4 -45 30 -45 20 0 24 5 24 30 0 25 -4 30 -24 30
-13 0 -26 -7 -30 -15z"/>
<path d="M4390 4340 c0 -5 6 -10 14 -10 8 0 18 5 21 10 3 6 -3 10 -14 10 -12
0 -21 -4 -21 -10z"/>
<path d="M4600 4340 c0 -5 9 -10 20 -10 11 0 20 5 20 10 0 6 -9 10 -20 10 -11
0 -20 -4 -20 -10z"/>
<path d="M4707 4376 c-10 -26 4 -47 27 -44 15 2 21 10 21 28 0 29 -38 41 -48
16z"/>
<path d="M4825 4380 c-4 -6 5 -10 19 -10 14 0 26 5 26 10 0 6 -9 10 -19 10
-11 0 -23 -4 -26 -10z"/>
<path d="M5100 4380 c0 -5 9 -10 20 -10 11 0 20 5 20 10 0 6 -9 10 -20 10 -11
0 -20 -4 -20 -10z"/>
<path d="M5440 4380 c0 -5 9 -10 20 -10 11 0 20 5 20 10 0 6 -9 10 -20 10 -11
0 -20 -4 -20 -10z"/>
<path d="M5766 4375 c-9 -25 4 -45 30 -45 20 0 24 5 24 30 0 25 -4 30 -24 30
-13 0 -26 -7 -30 -15z"/>
<path d="M5940 4360 c0 -28 3 -31 28 -28 21 2 27 8 27 28 0 20 -6 26 -27 28
-25 3 -28 0 -28 -28z"/>
<path d="M6204 4375 c-10 -25 4 -45 31 -45 21 0 25 5 25 30 0 25 -4 30 -25 30
-14 0 -28 -7 -31 -15z"/>
<path d="M6500 4360 c0 -25 4 -30 25 -30 21 0 25 5 25 30 0 25 -4 30 -25 30
-21 0 -25 -5 -25 -30z"/>
<path d="M6684 4376 c-10 -26 4 -48 28 -44 17 2 23 10 23 28 0 18 -6 26 -23
28 -13 2 -25 -3 -28 -12z"/>
<path d="M7190 4360 c0 -28 3 -31 28 -28 21 2 27 8 27 28 0 20 -6 26 -27 28
-25 3 -28 0 -28 -28z"/>
<path d="M7480 4380 c0 -5 9 -10 20 -10 11 0 20 5 20 10 0 6 -9 10 -20 10 -11
0 -20 -4 -20 -10z"/>
<path d="M7710 4380 c0 -5 9 -10 20 -10 11 0 20 5 20 10 0 6 -9 10 -20 10 -11
0 -20 -4 -20 -10z"/>
<path d="M7896 4375 c-9 -25 4 -45 30 -45 20 0 24 5 24 30 0 25 -4 30 -24 30
-13 0 -26 -7 -30 -15z"/>
<path d="M8160 4380 c0 -5 9 -10 20 -10 11 0 20 5 20 10 0 6 -9 10 -20 10 -11
0 -20 -4 -20 -10z"/>
<path d="M8394 4375 c-9 -23 3 -45 26 -45 16 0 20 7 20 30 0 23 -4 30 -20 30
-11 0 -23 -7 -26 -15z"/>
<path d="M8574 4375 c-10 -25 4 -45 31 -45 21 0 25 5 25 30 0 25 -4 30 -25 30
-14 0 -28 -7 -31 -15z"/>
<path d="M8860 4380 c0 -5 9 -10 20 -10 11 0 20 5 20 10 0 6 -9 10 -20 10 -11
0 -20 -4 -20 -10z"/>
<path d="M9130 4340 c0 -5 9 -10 20 -10 11 0 20 5 20 10 0 6 -9 10 -20 10 -11
0 -20 -4 -20 -10z"/>
<path d="M5190 4090 c0 -25 4 -30 25 -30 21 0 25 5 25 30 0 25 -4 30 -25 30
-21 0 -25 -5 -25 -30z"/>
<path d="M2974 4106 c-10 -26 4 -48 28 -44 17 2 23 10 23 28 0 18 -6 26 -23
28 -13 2 -25 -3 -28 -12z"/>
<path d="M3267 4106 c-10 -26 4 -47 27 -44 15 2 21 10 21 28 0 29 -38 41 -48
16z"/>
<path d="M3430 4110 c0 -5 12 -10 26 -10 14 0 23 4 19 10 -3 6 -15 10 -26 10
-10 0 -19 -4 -19 -10z"/>
<path d="M3624 4105 c-10 -25 4 -45 31 -45 21 0 25 5 25 30 0 25 -4 30 -25 30
-14 0 -28 -7 -31 -15z"/>
<path d="M3880 4110 c0 -5 12 -10 26 -10 14 0 23 4 19 10 -3 6 -15 10 -26 10
-10 0 -19 -4 -19 -10z"/>
<path d="M4170 4070 c0 -5 9 -10 20 -10 11 0 20 5 20 10 0 6 -9 10 -20 10 -11
0 -20 -4 -20 -10z"/>
<path d="M4370 4110 c0 -5 12 -10 26 -10 14 0 23 4 19 10 -3 6 -15 10 -26 10
-10 0 -19 -4 -19 -10z"/>
<path d="M4670 4110 c0 -5 12 -10 26 -10 14 0 23 4 19 10 -3 6 -15 10 -26 10
-10 0 -19 -4 -19 -10z"/>
<path d="M5080 4070 c0 -5 9 -10 20 -10 11 0 20 5 20 10 0 6 -9 10 -20 10 -11
0 -20 -4 -20 -10z"/>
<path d="M5306 4105 c-9 -25 4 -45 30 -45 20 0 24 5 24 30 0 25 -4 30 -24 30
-13 0 -26 -7 -30 -15z"/>
<path d="M5565 4110 c-4 -6 5 -10 19 -10 14 0 26 5 26 10 0 6 -9 10 -19 10
-11 0 -23 -4 -26 -10z"/>
<path d="M5850 4110 c0 -5 12 -10 26 -10 14 0 23 4 19 10 -3 6 -15 10 -26 10
-10 0 -19 -4 -19 -10z"/>
<path d="M5964 4105 c-9 -23 3 -45 26 -45 16 0 20 7 20 30 0 23 -4 30 -20 30
-11 0 -23 -7 -26 -15z"/>
<path d="M6216 4105 c-9 -25 4 -45 30 -45 20 0 24 5 24 30 0 25 -4 30 -24 30
-13 0 -26 -7 -30 -15z"/>
<path d="M6440 4070 c0 -5 9 -10 20 -10 11 0 20 5 20 10 0 6 -9 10 -20 10 -11
0 -20 -4 -20 -10z"/>
<path d="M6744 4105 c-9 -23 3 -45 26 -45 16 0 20 7 20 30 0 23 -4 30 -20 30
-11 0 -23 -7 -26 -15z"/>
<path d="M6850 4070 c0 -5 9 -10 20 -10 11 0 20 5 20 10 0 6 -9 10 -20 10 -11
0 -20 -4 -20 -10z"/>
<path d="M7020 4070 c0 -5 9 -10 20 -10 11 0 20 5 20 10 0 6 -9 10 -20 10 -11
0 -20 -4 -20 -10z"/>
<path d="M7184 4106 c-10 -26 4 -48 28 -44 17 2 23 10 23 28 0 18 -6 26 -23
28 -13 2 -25 -3 -28 -12z"/>
<path d="M7550 4110 c0 -5 12 -10 26 -10 14 0 23 4 19 10 -3 6 -15 10 -26 10
-10 0 -19 -4 -19 -10z"/>
<path d="M7657 4106 c-10 -26 4 -47 27 -44 15 2 21 10 21 28 0 29 -38 41 -48
16z"/>
<path d="M7774 4105 c-10 -25 4 -45 31 -45 21 0 25 5 25 30 0 25 -4 30 -25 30
-14 0 -28 -7 -31 -15z"/>
<path d="M8034 4106 c-10 -26 4 -48 28 -44 17 2 23 10 23 28 0 18 -6 26 -23
28 -13 2 -25 -3 -28 -12z"/>
<path d="M5940 3820 c0 -25 4 -30 25 -30 21 0 25 5 25 30 0 25 -4 30 -25 30
-21 0 -25 -5 -25 -30z"/>
<path d="M3060 3840 c0 -5 12 -10 26 -10 14 0 23 4 19 10 -3 6 -15 10 -26 10
-10 0 -19 -4 -19 -10z"/>
<path d="M3424 3835 c-9 -23 3 -45 26 -45 16 0 20 7 20 30 0 23 -4 30 -20 30
-11 0 -23 -7 -26 -15z"/>
<path d="M3604 3835 c-10 -25 4 -45 31 -45 21 0 25 5 25 30 0 25 -4 30 -25 30
-14 0 -28 -7 -31 -15z"/>
<path d="M3770 3840 c0 -5 12 -10 26 -10 14 0 23 4 19 10 -3 6 -15 10 -26 10
-10 0 -19 -4 -19 -10z"/>
<path d="M3944 3836 c-10 -26 4 -48 28 -44 17 2 23 10 23 28 0 18 -6 26 -23
28 -13 2 -25 -3 -28 -12z"/>
<path d="M4240 3800 c0 -5 9 -10 20 -10 11 0 20 5 20 10 0 6 -9 10 -20 10 -11
0 -20 -4 -20 -10z"/>
<path d="M4404 3836 c-10 -26 4 -48 28 -44 17 2 23 10 23 28 0 18 -6 26 -23
28 -13 2 -25 -3 -28 -12z"/>
<path d="M4520 3840 c0 -5 12 -10 26 -10 14 0 23 4 19 10 -3 6 -15 10 -26 10
-10 0 -19 -4 -19 -10z"/>
<path d="M4690 3800 c0 -5 9 -10 20 -10 11 0 20 5 20 10 0 6 -9 10 -20 10 -11
0 -20 -4 -20 -10z"/>
<path d="M4860 3800 c0 -5 9 -10 20 -10 11 0 20 5 20 10 0 6 -9 10 -20 10 -11
0 -20 -4 -20 -10z"/>
<path d="M5580 3820 c0 -28 3 -31 28 -28 21 2 27 8 27 28 0 20 -6 26 -27 28
-25 3 -28 0 -28 -28z"/>
<path d="M5700 3840 c0 -5 9 -10 20 -10 11 0 20 5 20 10 0 6 -9 10 -20 10 -11
0 -20 -4 -20 -10z"/>
<path d="M6060 3840 c0 -5 9 -10 20 -10 11 0 20 5 20 10 0 6 -9 10 -20 10 -11
0 -20 -4 -20 -10z"/>
<path d="M6290 3840 c0 -5 9 -10 20 -10 11 0 20 5 20 10 0 6 -9 10 -20 10 -11
0 -20 -4 -20 -10z"/>
<path d="M6390 3800 c0 -5 9 -10 20 -10 11 0 20 5 20 10 0 6 -9 10 -20 10 -11
0 -20 -4 -20 -10z"/>
<path d="M6680 3840 c0 -5 12 -10 26 -10 14 0 23 4 19 10 -3 6 -15 10 -26 10
-10 0 -19 -4 -19 -10z"/>
<path d="M7080 3840 c0 -5 12 -10 26 -10 14 0 23 4 19 10 -3 6 -15 10 -26 10
-10 0 -19 -4 -19 -10z"/>
<path d="M7280 3840 c0 -5 12 -10 26 -10 14 0 23 4 19 10 -3 6 -15 10 -26 10
-10 0 -19 -4 -19 -10z"/>
<path d="M7500 3800 c0 -5 6 -10 14 -10 8 0 18 5 21 10 3 6 -3 10 -14 10 -12
0 -21 -4 -21 -10z"/>
<path d="M7650 3800 c0 -5 9 -10 20 -10 11 0 20 5 20 10 0 6 -9 10 -20 10 -11
0 -20 -4 -20 -10z"/>
<path d="M7980 3800 c0 -5 9 -10 20 -10 11 0 20 5 20 10 0 6 -9 10 -20 10 -11
0 -20 -4 -20 -10z"/>
<path d="M4467 3566 c-10 -26 4 -47 27 -44 15 2 21 10 21 28 0 29 -38 41 -48
16z"/>
<path d="M5027 3566 c-10 -26 4 -47 27 -44 15 2 21 10 21 28 0 29 -38 41 -48
16z"/>
<path d="M5887 3566 c-10 -26 4 -47 27 -44 15 2 21 10 21 28 0 29 -38 41 -48
16z"/>
<path d="M2880 3570 c0 -5 12 -10 26 -10 14 0 23 4 19 10 -3 6 -15 10 -26 10
-10 0 -19 -4 -19 -10z"/>
<path d="M3136 3565 c-9 -25 4 -45 30 -45 20 0 24 5 24 30 0 25 -4 30 -24 30
-13 0 -26 -7 -30 -15z"/>
<path d="M3510 3570 c0 -5 9 -10 20 -10 11 0 20 5 20 10 0 6 -9 10 -20 10 -11
0 -20 -4 -20 -10z"/>
<path d="M3790 3550 c0 -25 4 -30 25 -30 21 0 25 5 25 30 0 25 -4 30 -25 30
-21 0 -25 -5 -25 -30z"/>
<path d="M3970 3570 c0 -5 12 -10 26 -10 14 0 23 4 19 10 -3 6 -15 10 -26 10
-10 0 -19 -4 -19 -10z"/>
<path d="M4130 3570 c0 -5 12 -10 26 -10 14 0 23 4 19 10 -3 6 -15 10 -26 10
-10 0 -19 -4 -19 -10z"/>
<path d="M4870 3530 c0 -5 6 -10 14 -10 8 0 18 5 21 10 3 6 -3 10 -14 10 -12
0 -21 -4 -21 -10z"/>
<path d="M5145 3570 c-4 -6 5 -10 19 -10 14 0 26 5 26 10 0 6 -9 10 -19 10
-11 0 -23 -4 -26 -10z"/>
<path d="M5416 3565 c-9 -25 4 -45 30 -45 20 0 24 5 24 30 0 25 -4 30 -24 30
-13 0 -26 -7 -30 -15z"/>
<path d="M5630 3550 c0 -28 3 -31 28 -28 21 2 27 8 27 28 0 20 -6 26 -27 28
-25 3 -28 0 -28 -28z"/>
<path d="M6005 3570 c-4 -6 5 -10 19 -10 14 0 26 5 26 10 0 6 -9 10 -19 10
-11 0 -23 -4 -26 -10z"/>
<path d="M6190 3530 c0 -5 9 -10 20 -10 11 0 20 5 20 10 0 6 -9 10 -20 10 -11
0 -20 -4 -20 -10z"/>
<path d="M6406 3565 c-9 -25 4 -45 30 -45 20 0 24 5 24 30 0 25 -4 30 -24 30
-13 0 -26 -7 -30 -15z"/>
<path d="M6670 3550 c0 -25 4 -30 25 -30 21 0 25 5 25 30 0 25 -4 30 -25 30
-21 0 -25 -5 -25 -30z"/>
<path d="M6780 3530 c0 -5 9 -10 20 -10 11 0 20 5 20 10 0 6 -9 10 -20 10 -11
0 -20 -4 -20 -10z"/>
<path d="M6950 3530 c0 -5 9 -10 20 -10 11 0 20 5 20 10 0 6 -9 10 -20 10 -11
0 -20 -4 -20 -10z"/>
<path d="M7314 3565 c-9 -23 3 -45 26 -45 16 0 20 7 20 30 0 23 -4 30 -20 30
-11 0 -23 -7 -26 -15z"/>
<path d="M7425 3570 c-4 -6 5 -10 19 -10 14 0 26 5 26 10 0 6 -9 10 -19 10
-11 0 -23 -4 -26 -10z"/>
<path d="M7600 3530 c0 -5 6 -10 14 -10 8 0 18 5 21 10 3 6 -3 10 -14 10 -12
0 -21 -4 -21 -10z"/>
<path d="M2994 2874 c-19 -29 -11 -69 17 -87 21 -13 69 -1 69 18 0 18 -4 19
-31 3 -17 -11 -22 -10 -35 6 -8 11 -14 23 -14 26 0 3 6 15 14 26 13 16 18 17
35 7 14 -9 22 -9 27 -2 4 6 0 15 -7 20 -26 16 -58 9 -75 -17z"/>
<path d="M3503 2885 c-16 -29 -2 -99 20 -103 9 -2 17 1 17 7 0 6 -4 11 -10 11
-15 0 -12 47 3 53 8 4 9 8 1 14 -6 4 -13 15 -16 23 -4 12 -7 11 -15 -5z"/>
<path d="M4270 2890 c0 -5 5 -10 10 -10 6 0 10 5 10 10 0 6 -4 10 -10 10 -5 0
-10 -4 -10 -10z"/>
<path d="M3116 2854 c-9 -8 -16 -22 -16 -29 0 -7 7 -21 16 -29 30 -30 74 -13
74 29 0 42 -44 59 -74 29z m52 -27 c4 -21 -27 -35 -38 -17 -12 19 0 42 19 38
9 -2 17 -11 19 -21z"/>
<path d="M3210 2823 c0 -23 5 -43 10 -43 6 0 10 16 10 36 0 28 3 35 18 32 11
-2 18 -14 20 -36 4 -42 22 -42 22 1 0 44 -10 56 -48 55 -31 -1 -32 -2 -32 -45z"/>
<path d="M3324 2862 c-17 -11 -22 -35 -13 -60 7 -18 15 -23 36 -20 14 2 28 9
31 16 3 9 -3 11 -22 6 -16 -4 -26 -2 -26 5 0 6 11 11 25 11 18 0 25 5 25 19 0
25 -33 39 -56 23z m33 -18 c-3 -3 -12 -4 -19 -1 -8 3 -5 6 6 6 11 1 17 -2 13
-5z"/>
<path d="M3412 2858 c-7 -7 -12 -21 -12 -33 0 -41 45 -60 71 -29 11 13 9 15
-17 12 -23 -2 -29 1 -29 17 0 16 6 19 29 17 26 -3 28 -1 17 12 -16 19 -42 21
-59 4z"/>
<path d="M3564 2862 c-17 -11 -22 -35 -13 -60 7 -18 15 -23 36 -20 14 2 28 9
31 16 3 9 -3 11 -22 6 -16 -4 -26 -2 -26 5 0 6 11 11 25 11 18 0 25 5 25 19 0
25 -33 39 -56 23z m33 -18 c-3 -3 -12 -4 -19 -1 -8 3 -5 6 6 6 11 1 17 -2 13
-5z"/>
<path d="M3703 2859 c-16 -16 -5 -39 17 -39 11 0 22 -5 26 -11 4 -8 -4 -9 -27
-4 -31 7 -32 6 -20 -9 18 -21 65 -17 69 6 2 10 -8 23 -25 32 l-28 16 30 -7
c27 -6 29 -5 16 10 -16 20 -42 22 -58 6z"/>
<path d="M3802 2858 c-7 -7 -12 -25 -12 -40 0 -21 6 -29 24 -34 26 -6 46 1 46
17 0 5 -11 7 -25 3 -15 -4 -25 -2 -25 5 0 6 14 11 30 11 33 0 35 3 20 31 -12
21 -40 25 -58 7z m35 -14 c-3 -3 -12 -4 -19 -1 -8 3 -5 6 6 6 11 1 17 -2 13
-5z"/>
<path d="M3943 2864 c-7 -3 -13 -21 -13 -40 0 -28 4 -35 26 -40 18 -5 31 -1
42 11 16 16 15 17 -15 10 -31 -6 -33 -5 -33 20 0 24 3 26 26 21 19 -5 25 -3
22 6 -5 14 -35 20 -55 12z"/>
<path d="M4032 2858 c-27 -27 -7 -78 29 -78 21 0 49 26 49 45 0 35 -53 58 -78
33z m48 -33 c0 -25 -23 -35 -35 -15 -10 16 2 40 20 40 9 0 15 -9 15 -25z"/>
<path d="M4120 2824 c0 -32 4 -44 15 -44 10 0 15 11 15 35 0 24 5 35 15 35 10
0 15 -11 15 -35 0 -19 5 -35 10 -35 6 0 10 16 10 35 0 24 5 35 15 35 10 0 15
-11 15 -35 0 -19 5 -35 11 -35 6 0 9 17 7 43 l-3 42 -62 2 -63 1 0 -44z"/>
<path d="M4270 2825 c0 -25 5 -45 10 -45 6 0 10 20 10 45 0 25 -4 45 -10 45
-5 0 -10 -20 -10 -45z"/>
<path d="M4324 2856 c-3 -7 -4 -33 -2 -57 3 -43 4 -44 38 -44 l35 0 3 56 3 56
-36 1 c-21 1 -38 -4 -41 -12z m51 -31 c0 -11 -8 -21 -17 -23 -14 -3 -18 3 -18
23 0 20 4 26 18 23 9 -2 17 -12 17 -23z m5 -45 c0 -5 -8 -10 -17 -10 -15 0
-16 2 -3 10 19 12 20 12 20 0z"/>
<path d="M4430 2856 c-28 -35 11 -93 48 -70 35 22 22 84 -18 84 -10 0 -23 -7
-30 -14z m50 -31 c0 -25 -23 -35 -35 -15 -10 16 2 40 20 40 9 0 15 -9 15 -25z"/>
<path d="M3640 2820 c0 -5 9 -10 20 -10 11 0 20 5 20 10 0 6 -9 10 -20 10 -11
0 -20 -4 -20 -10z"/>
<path d="M8817 882 c-22 -24 -23 -105 -1 -126 19 -20 58 -21 74 -1 6 8 14 32
17 54 10 73 -48 120 -90 73z"/>
<path d="M9630 885 c-18 -22 -22 -87 -8 -115 17 -31 53 -37 79 -14 24 22 27
105 3 128 -19 20 -58 21 -74 1z"/>
<path d="M10287 882 c-19 -21 -23 -92 -7 -123 13 -23 52 -25 73 -4 22 22 30
81 15 113 -16 34 -57 41 -81 14z"/>
<path d="M8492 799 c-27 -10 -27 -46 0 -63 22 -13 58 18 58 51 0 25 -17 29
-58 12z"/>
<path d="M9973 800 c-27 -11 -31 -55 -7 -64 25 -10 64 20 64 49 0 27 -17 31
-57 15z"/>
<path d="M10626 888 c-24 -33 -20 -38 29 -38 37 0 45 3 45 18 0 43 -49 56 -74
20z"/>
<path d="M5638 3 c6 -2 18 -2 25 0 6 3 1 5 -13 5 -14 0 -19 -2 -12 -5z"/>
<path d="M5788 3 c6 -2 18 -2 25 0 6 3 1 5 -13 5 -14 0 -19 -2 -12 -5z"/>
<path d="M5928 3 c6 -2 18 -2 25 0 6 3 1 5 -13 5 -14 0 -19 -2 -12 -5z"/>
<path d="M6068 3 c7 -3 16 -2 19 1 4 3 -2 6 -13 5 -11 0 -14 -3 -6 -6z"/>
<path d="M6198 3 c6 -2 18 -2 25 0 6 3 1 5 -13 5 -14 0 -19 -2 -12 -5z"/>
<path d="M6298 3 c6 -2 18 -2 25 0 6 3 1 5 -13 5 -14 0 -19 -2 -12 -5z"/>
<path d="M6448 3 c7 -3 16 -2 19 1 4 3 -2 6 -13 5 -11 0 -14 -3 -6 -6z"/>
<path d="M6538 3 c6 -2 18 -2 25 0 6 3 1 5 -13 5 -14 0 -19 -2 -12 -5z"/>
<path d="M6898 3 c7 -3 16 -2 19 1 4 3 -2 6 -13 5 -11 0 -14 -3 -6 -6z"/>
<path d="M6978 3 c7 -3 16 -2 19 1 4 3 -2 6 -13 5 -11 0 -14 -3 -6 -6z"/>
<path d="M7188 3 c6 -2 18 -2 25 0 6 3 1 5 -13 5 -14 0 -19 -2 -12 -5z"/>
<path d="M7328 3 c6 -2 18 -2 25 0 6 3 1 5 -13 5 -14 0 -19 -2 -12 -5z"/>
<path d="M7618 3 c6 -2 18 -2 25 0 6 3 1 5 -13 5 -14 0 -19 -2 -12 -5z"/>
<path d="M7728 3 c6 -2 18 -2 25 0 6 3 1 5 -13 5 -14 0 -19 -2 -12 -5z"/>
<path d="M7948 3 c7 -3 16 -2 19 1 4 3 -2 6 -13 5 -11 0 -14 -3 -6 -6z"/>
<path d="M8078 3 c6 -2 18 -2 25 0 6 3 1 5 -13 5 -14 0 -19 -2 -12 -5z"/>
<path d="M8208 3 c6 -2 18 -2 25 0 6 3 1 5 -13 5 -14 0 -19 -2 -12 -5z"/>
<path d="M8398 3 c7 -3 16 -2 19 1 4 3 -2 6 -13 5 -11 0 -14 -3 -6 -6z"/>
<path d="M8478 3 c7 -3 16 -2 19 1 4 3 -2 6 -13 5 -11 0 -14 -3 -6 -6z"/>
<path d="M8678 3 c7 -3 16 -2 19 1 4 3 -2 6 -13 5 -11 0 -14 -3 -6 -6z"/>
<path d="M8818 3 c7 -3 16 -2 19 1 4 3 -2 6 -13 5 -11 0 -14 -3 -6 -6z"/>
<path d="M8938 3 c6 -2 18 -2 25 0 6 3 1 5 -13 5 -14 0 -19 -2 -12 -5z"/>
<path d="M9068 3 c6 -2 18 -2 25 0 6 3 1 5 -13 5 -14 0 -19 -2 -12 -5z"/>
<path d="M9258 3 c6 -2 18 -2 25 0 6 3 1 5 -13 5 -14 0 -19 -2 -12 -5z"/>
<path d="M9548 3 c6 -2 18 -2 25 0 6 3 1 5 -13 5 -14 0 -19 -2 -12 -5z"/>
<path d="M9688 3 c6 -2 18 -2 25 0 6 3 1 5 -13 5 -14 0 -19 -2 -12 -5z"/>
<path d="M9868 3 c6 -2 18 -2 25 0 6 3 1 5 -13 5 -14 0 -19 -2 -12 -5z"/>
<path d="M9998 3 c6 -2 18 -2 25 0 6 3 1 5 -13 5 -14 0 -19 -2 -12 -5z"/>
<path d="M10188 3 c6 -2 18 -2 25 0 6 3 1 5 -13 5 -14 0 -19 -2 -12 -5z"/>
<path d="M10378 3 c7 -3 16 -2 19 1 4 3 -2 6 -13 5 -11 0 -14 -3 -6 -6z"/>
<path d="M10498 3 c6 -2 18 -2 25 0 6 3 1 5 -13 5 -14 0 -19 -2 -12 -5z"/>
<path d="M10648 3 c6 -2 18 -2 25 0 6 3 1 5 -13 5 -14 0 -19 -2 -12 -5z"/>
<path d="M10968 3 c6 -2 18 -2 25 0 6 3 1 5 -13 5 -14 0 -19 -2 -12 -5z"/>
<path d="M11108 3 c6 -2 18 -2 25 0 6 3 1 5 -13 5 -14 0 -19 -2 -12 -5z"/>
<path d="M11248 3 c7 -3 16 -2 19 1 4 3 -2 6 -13 5 -11 0 -14 -3 -6 -6z"/>
<path d="M11388 3 c6 -2 18 -2 25 0 6 3 1 5 -13 5 -14 0 -19 -2 -12 -5z"/>
<path d="M11508 3 c6 -2 18 -2 25 0 6 3 1 5 -13 5 -14 0 -19 -2 -12 -5z"/>
<path d="M11698 3 c7 -3 16 -2 19 1 4 3 -2 6 -13 5 -11 0 -14 -3 -6 -6z"/>
<path d="M11898 3 c6 -2 18 -2 25 0 6 3 1 5 -13 5 -14 0 -19 -2 -12 -5z"/>
<path d="M12018 3 c6 -2 18 -2 25 0 6 3 1 5 -13 5 -14 0 -19 -2 -12 -5z"/>
<path d="M12168 3 c7 -3 16 -2 19 1 4 3 -2 6 -13 5 -11 0 -14 -3 -6 -6z"/>
<path d="M12308 3 c7 -3 16 -2 19 1 4 3 -2 6 -13 5 -11 0 -14 -3 -6 -6z"/>
<path d="M12438 3 c6 -2 18 -2 25 0 6 3 1 5 -13 5 -14 0 -19 -2 -12 -5z"/>
<path d="M12578 3 c6 -2 18 -2 25 0 6 3 1 5 -13 5 -14 0 -19 -2 -12 -5z"/>
<path d="M12748 3 c6 -2 18 -2 25 0 6 3 1 5 -13 5 -14 0 -19 -2 -12 -5z"/>
<path d="M12828 3 c7 -3 16 -2 19 1 4 3 -2 6 -13 5 -11 0 -14 -3 -6 -6z"/>
<path d="M12958 3 c6 -2 18 -2 25 0 6 3 1 5 -13 5 -14 0 -19 -2 -12 -5z"/>
<path d="M13098 3 c6 -2 18 -2 25 0 6 3 1 5 -13 5 -14 0 -19 -2 -12 -5z"/>
<path d="M13318 3 c6 -2 18 -2 25 0 6 3 1 5 -13 5 -14 0 -19 -2 -12 -5z"/>
<path d="M13458 3 c6 -2 18 -2 25 0 6 3 1 5 -13 5 -14 0 -19 -2 -12 -5z"/>
</g>
</svg>
